<?xml version="1.0" standalone="no"?>
<!DOCTYPE svg PUBLIC "-//W3C//DTD SVG 20010904//EN"
 "http://www.w3.org/TR/2001/REC-SVG-20010904/DTD/svg10.dtd">
<svg version="1.0" xmlns="http://www.w3.org/2000/svg"
 width="450.000000pt" height="450.000000pt" viewBox="0 0 450.000000 450.000000"
 preserveAspectRatio="xMidYMid meet">
<metadata>
Created by potrace 1.10, written by Peter Selinger 2001-2011
</metadata>
<g transform="translate(0.000000,450.000000) scale(0.050000,-0.050000)"
fill="#000000" stroke="none">
<path d="M4113 8969 c14 -35 70 -31 82 6 5 16 -11 25 -43 25 -38 0 -48 -8 -39
-31z"/>
<path d="M4533 8970 c-7 -16 -30 -30 -52 -30 -23 0 -41 -9 -41 -20 0 -26 19
-25 97 2 35 12 63 35 63 50 0 37 -53 36 -67 -2z"/>
<path d="M5028 8976 c-8 -13 -4 -27 9 -32 19 -6 19 -15 1 -36 -12 -15 -15 -29
-5 -29 9 -1 0 -9 -21 -17 -36 -14 -36 -17 10 -61 32 -31 40 -49 23 -55 -14 -5
-25 -26 -25 -47 0 -20 -8 -58 -18 -83 -33 -80 -48 -126 -50 -141 -3 -25 -42
-7 -42 20 0 13 -34 57 -75 97 -81 78 -91 101 -46 101 16 0 25 -7 20 -15 -6 -9
8 -26 30 -38 33 -17 41 -15 41 9 0 37 33 41 45 6 7 -20 15 -20 38 0 49 40 20
143 -64 229 -80 80 -111 96 -92 46 7 -19 0 -30 -19 -30 -17 0 -44 -13 -61 -30
-43 -43 -80 -37 -40 7 40 44 42 75 5 89 -63 25 -51 -160 14 -208 8 -6 21 -46
28 -89 8 -52 38 -104 89 -157 43 -44 77 -100 77 -125 0 -24 9 -50 20 -57 11
-7 20 0 20 15 0 16 23 49 50 75 28 26 50 67 50 92 0 52 31 80 51 46 10 -16 18
-15 29 2 18 29 60 9 60 -28 0 -28 -188 -229 -250 -266 -38 -23 -38 -26 -5 -46
57 -36 42 -66 -26 -53 -45 9 -68 2 -94 -27 -19 -22 -49 -40 -68 -40 -19 0 -41
-10 -48 -21 -15 -24 -86 -54 -161 -68 -76 -13 -48 35 28 51 62 12 133 56 117
71 -4 4 -46 -10 -94 -31 -95 -43 -127 -38 -110 16 9 29 -1 33 -64 28 -41 -3
-64 -1 -50 6 14 6 21 19 15 28 -6 9 27 49 73 88 81 69 83 74 82 191 -1 66 6
126 17 132 10 6 18 34 18 62 0 41 7 47 40 37 34 -11 44 125 12 163 -24 28
-143 -32 -187 -95 -30 -43 -80 -89 -110 -103 -31 -14 -51 -36 -46 -50 7 -19
-6 -17 -49 5 l-58 30 28 -55 c82 -162 90 -198 70 -306 -27 -140 -25 -179 8
-179 15 0 36 -11 48 -25 23 -28 -96 -32 -162 -5 -45 19 -69 -3 -38 -34 36 -36
29 -73 -11 -66 -19 4 -48 8 -64 8 -23 2 -24 7 -5 26 28 28 33 124 5 107 -10
-6 -24 -2 -32 10 -7 12 6 27 31 33 27 7 35 17 21 25 -17 11 -16 39 2 108 29
106 3 178 -111 309 -137 157 -359 189 -235 34 18 -22 5 -15 -28 15 -110 99
-130 42 -21 -61 56 -52 85 -64 158 -64 59 0 93 -10 101 -28 11 -30 -38 -61
-84 -54 -15 3 -23 -7 -18 -22 4 -14 21 -26 37 -26 29 0 76 -47 77 -77 1 -10
-13 -6 -31 9 -28 23 -31 20 -25 -23 4 -30 19 -48 39 -47 17 1 31 -10 31 -25 0
-15 -14 -27 -31 -28 -27 0 -26 -5 4 -28 24 -17 29 -32 15 -40 -12 -8 -16 -23
-9 -34 7 -12 -2 -18 -23 -14 -20 4 -57 48 -83 97 -42 80 -86 118 -86 75 0 -8
0 -37 0 -63 0 -66 92 -174 134 -158 20 8 28 5 19 -9 -7 -11 0 -26 15 -32 16
-5 34 -37 41 -69 7 -32 33 -69 57 -82 24 -13 29 -19 11 -14 -17 5 -41 0 -52
-11 -13 -13 -34 -1 -63 35 -41 52 -123 19 -89 -37 19 -31 -28 -14 -60 22 -41
45 -43 71 -4 56 17 -6 35 -3 42 8 6 10 -7 19 -30 19 -22 0 -42 11 -42 25 -1
14 -9 7 -18 -15 -9 -22 -8 -56 2 -75 15 -29 10 -35 -34 -35 -37 0 -50 10 -47
35 5 40 -10 83 -64 193 -30 59 -33 83 -16 105 18 21 15 37 -12 67 -20 22 -40
84 -45 140 -11 107 -66 148 -61 45 3 -74 -18 -167 -43 -192 -32 -32 -25 -53
19 -53 22 0 40 -2 40 -5 0 -3 -8 -34 -19 -70 -11 -41 -11 -65 1 -65 11 0 10
-18 -3 -43 -21 -39 -19 -41 27 -30 51 13 121 -35 73 -51 -13 -4 -5 -28 21 -62
25 -31 53 -48 67 -40 12 7 11 -2 -4 -20 -48 -59 -108 -40 -183 55 -82 105
-106 113 -93 31 5 -33 1 -60 -9 -60 -10 0 -18 -14 -18 -31 0 -17 -9 -26 -20
-19 -11 7 -20 -6 -20 -28 0 -28 9 -37 30 -29 17 6 30 24 30 39 0 15 18 28 40
28 76 0 30 -105 -55 -126 -25 -5 -40 -2 -34 8 6 10 2 18 -10 18 -11 0 -21 -10
-21 -22 0 -14 -19 -18 -50 -10 -29 7 -50 4 -50 -8 0 -38 -35 -20 -48 25 -15
57 59 128 99 95 19 -17 24 -10 22 29 -3 52 -109 58 -162 9 -10 -10 -35 -18
-55 -18 -20 0 -36 -11 -37 -25 0 -17 -9 -14 -25 7 -22 28 -28 28 -62 -5 -43
-41 -92 -49 -92 -16 0 12 9 16 20 9 11 -7 20 2 20 20 0 17 23 53 50 78 28 26
50 55 50 65 0 11 32 20 71 21 74 2 136 38 118 68 -6 10 -37 4 -69 -12 -69 -36
-87 -38 -69 -8 7 12 -14 7 -48 -11 -34 -17 -71 -49 -83 -71 -12 -23 -42 -40
-69 -40 -38 0 -53 -16 -72 -75 -37 -112 -81 -173 -102 -141 -12 20 -16 20 -17
1 -1 -71 -108 19 -147 123 -23 63 -52 10 -57 -104 -4 -85 -11 -104 -40 -104
-20 0 -36 -10 -36 -21 0 -12 -9 -16 -20 -9 -11 7 -20 38 -20 70 0 32 -9 63
-20 70 -40 25 -18 50 35 41 l55 -10 -55 23 c-30 13 -55 37 -55 52 0 22 -16 26
-61 17 -40 -8 -57 -5 -48 9 7 11 41 19 76 17 35 -2 98 -2 141 -1 l78 2 -58 50
c-39 33 -48 50 -27 50 17 0 42 -11 55 -24 13 -13 30 -17 37 -9 22 21 -57 71
-118 75 -30 2 -66 5 -80 6 -13 1 -37 -24 -52 -55 -20 -43 -33 -51 -50 -34 -17
18 -12 33 22 61 55 45 57 60 6 60 -64 0 -65 34 -2 60 60 24 221 -38 221 -86 0
-10 14 -13 32 -6 21 8 35 -1 42 -28 6 -22 18 -40 28 -40 28 0 -4 128 -39 157
-29 25 -27 26 20 15 50 -11 54 -6 67 69 13 78 69 132 85 83 5 -13 29 1 56 32
26 30 48 43 48 30 1 -13 -8 -29 -19 -36 -40 -25 -20 -51 22 -29 62 33 66 12
15 -84 -25 -48 -43 -98 -40 -110 2 -13 -4 -29 -15 -36 -10 -6 -14 -27 -9 -46
5 -21 -8 -45 -32 -60 -41 -26 -56 -9 -23 26 22 23 5 149 -20 149 -10 0 -19 -7
-21 -15 -12 -74 -9 -124 12 -175 13 -33 21 -70 17 -82 -4 -12 6 -33 21 -46 24
-20 31 -10 43 56 13 79 118 212 151 191 8 -5 29 14 47 41 18 28 25 50 15 50
-58 0 -9 195 55 216 22 7 25 -9 13 -83 -8 -58 -6 -93 6 -93 30 0 105 113 111
166 2 25 11 57 19 70 9 13 5 24 -7 24 -34 0 -80 52 -81 94 -3 58 -36 -30 -38
-99 -2 -86 -41 -65 -41 23 0 45 -13 88 -30 102 -36 30 -32 34 -80 -80 -41 -98
-82 -157 -63 -90 33 117 36 150 15 150 -13 0 -31 -20 -40 -45 -22 -58 -102
-132 -102 -94 0 14 20 49 45 76 36 39 38 47 10 37 -21 -8 -35 -3 -35 12 -1 69
-38 84 -84 35 -75 -79 -138 -222 -104 -235 15 -5 28 -19 28 -30 0 -11 -13 -15
-30 -9 -36 14 -75 -51 -58 -96 19 -48 -114 -41 -178 9 l-51 41 49 49 c48 48
103 70 79 32 -6 -10 3 -23 19 -29 17 -7 24 -25 18 -42 -7 -17 -3 -31 8 -31 42
0 44 98 4 170 -56 100 -52 130 20 130 47 0 62 11 72 50 7 28 20 50 30 50 10 0
18 18 18 40 0 43 -29 54 -51 19 -26 -42 -76 -7 -102 71 -21 66 -25 70 -19 20
3 -33 13 -76 21 -95 11 -25 6 -35 -15 -35 -17 0 -35 11 -40 25 -5 14 -16 18
-24 10 -9 -8 -5 -26 7 -41 36 -43 -117 -145 -200 -133 -53 7 -79 -1 -66 -22 7
-13 46 -16 98 -8 74 11 93 6 141 -39 31 -29 47 -52 35 -52 -11 0 -31 14 -45
30 -38 46 -52 37 -97 -58 -23 -49 -51 -95 -62 -102 -12 -7 -21 -51 -21 -99 0
-64 -10 -93 -41 -114 -33 -22 -41 -51 -45 -167 -2 -77 -14 -149 -27 -160 -98
-87 8 -298 121 -239 71 37 70 37 58 -11 -8 -29 -27 -40 -71 -40 -53 0 -58 -5
-46 -45 8 -25 19 -67 24 -95 6 -27 22 -77 37 -110 26 -59 57 -189 121 -500 61
-294 129 -556 153 -584 13 -16 26 -85 29 -152 2 -68 10 -155 16 -194 17 -101
-21 -33 -57 103 -67 251 -113 330 -140 242 -16 -49 58 -334 106 -413 227 -367
260 -441 210 -460 -41 -16 -5 -67 67 -94 32 -12 67 -61 106 -147 32 -70 67
-134 79 -141 11 -7 20 -29 20 -49 0 -20 14 -42 30 -48 17 -7 30 -21 30 -33 0
-90 382 -480 470 -480 8 0 76 -31 153 -69 83 -41 185 -73 253 -81 186 -20 226
-31 210 -57 -9 -15 -3 -15 17 2 17 14 82 29 143 34 349 26 792 296 1010 615
18 25 41 53 53 61 11 8 14 15 5 15 -8 0 -1 27 15 59 38 73 40 133 3 147 -36
14 -72 -23 -72 -75 -1 -114 -156 -330 -237 -331 -37 0 -45 -8 -37 -39 11 -45
-34 -96 -55 -62 -23 36 -49 23 -81 -39 -18 -35 -47 -60 -69 -60 -21 0 -41 -11
-46 -25 -6 -17 -19 -14 -45 13 -33 33 -39 33 -49 5 -8 -23 -20 -26 -41 -13
-47 30 -66 23 -54 -20 6 -23 0 -41 -13 -41 -13 -1 -62 -6 -111 -12 -73 -8 -85
-5 -75 22 6 17 2 31 -10 31 -12 0 -17 -18 -11 -40 8 -31 -2 -43 -43 -51 -29
-6 -92 -20 -139 -31 -93 -21 -124 -12 -124 33 0 16 -9 29 -20 29 -11 0 -20
-13 -20 -29 0 -38 -80 -63 -101 -30 -13 22 -35 28 -126 37 -10 1 -12 16 -6 32
7 17 3 30 -8 30 -10 0 -19 -16 -19 -35 -1 -27 -4 -29 -18 -8 -9 15 -55 29
-102 31 -61 3 -96 18 -121 49 -20 24 -44 43 -53 41 -42 -7 -69 9 -166 100 -58
54 -99 108 -91 120 7 11 -26 61 -74 110 -84 87 -85 89 -31 78 58 -11 76 38 44
122 -15 38 -68 -5 -68 -55 0 -61 -70 -21 -75 44 -8 91 -8 108 -1 152 4 25 -7
42 -29 47 -27 5 -35 -6 -35 -50 l0 -56 -36 60 c-20 33 -57 132 -83 220 -25 88
-72 210 -102 270 -96 188 -105 332 -99 1580 1 223 26 360 66 360 18 1 18 4 -1
17 -31 19 40 103 88 103 20 0 27 11 20 30 -7 17 -3 30 8 30 10 0 19 -7 19 -15
0 -23 187 -85 256 -85 77 0 127 -19 113 -42 -6 -10 6 -18 28 -18 22 0 55 -6
74 -13 24 -9 32 -5 25 15 -6 15 -25 25 -43 22 -18 -3 -33 5 -33 18 0 16 28 20
95 10 105 -14 298 20 347 61 41 35 59 34 45 -3 -22 -58 118 -1 159 65 9 14 29
25 45 25 16 0 29 8 29 17 0 24 156 98 240 114 39 8 84 24 100 36 25 19 26 18
5 -9 -20 -26 -16 -39 25 -78 28 -26 50 -37 50 -25 0 12 -11 25 -25 30 -39 13
123 155 177 155 25 0 51 9 58 20 30 49 244 23 282 -35 42 -62 108 -237 108
-285 0 -54 149 -371 207 -440 112 -133 281 -611 342 -968 10 -57 20 -71 36
-55 36 36 58 27 51 -22 -4 -30 -20 -45 -46 -45 -29 0 -40 -14 -41 -50 -1 -62
-29 -160 -46 -160 -7 0 -14 -30 -14 -67 -1 -47 7 -67 27 -65 48 3 52 -50 6
-62 -33 -8 -42 -26 -41 -83 3 -143 59 -179 82 -53 6 31 25 41 85 43 137 5 276
167 143 167 -32 0 -51 -11 -51 -31 0 -31 -77 -72 -105 -55 -26 15 -16 71 19
111 33 36 33 41 1 98 -41 71 -28 157 24 157 94 0 98 207 4 212 -55 3 -53 0
-88 105 -22 66 -24 107 -9 170 34 145 38 722 6 847 -16 60 -24 123 -18 138 7
19 -4 28 -32 28 -23 0 -42 9 -42 20 0 11 14 20 30 20 39 0 39 77 -1 121 -27
30 -27 43 8 131 45 114 76 113 66 -2 -6 -75 -4 -78 28 -47 29 28 31 44 12 98
-47 132 7 338 71 274 76 -77 67 -357 -16 -493 -39 -64 -78 -68 -78 -7 0 24 -6
27 -22 11 -15 -15 -16 -33 -1 -61 12 -22 15 -47 7 -56 -8 -8 2 -9 23 -2 20 7
51 13 68 13 17 0 26 6 19 13 -8 7 13 59 44 115 73 127 127 306 99 324 -11 6
-15 25 -9 41 7 16 -11 53 -38 83 -28 29 -50 68 -50 86 0 17 -18 48 -40 68 -33
30 -38 54 -30 138 5 56 1 116 -10 132 -16 24 -19 21 -15 -14 3 -24 -4 -44 -15
-44 -11 0 -25 -20 -31 -46 -7 -28 -24 -44 -44 -40 -49 8 -60 -30 -24 -84 30
-47 30 -51 -9 -76 -42 -26 -55 -65 -27 -81 8 -5 4 -6 -9 -3 -13 3 -35 -21 -50
-53 -14 -32 -33 -59 -41 -59 -8 0 -15 -10 -15 -21 0 -12 -15 -37 -33 -54 -37
-38 -22 40 18 90 14 17 12 25 -4 25 -13 0 -21 14 -17 31 3 17 14 30 24 28 25
-4 57 57 42 81 -6 10 7 30 29 44 61 38 50 70 -24 67 -87 -4 -157 -44 -142 -81
6 -17 1 -30 -11 -30 -47 0 -19 79 43 123 36 25 70 51 75 58 6 7 35 19 65 26
30 8 55 27 55 43 0 16 12 24 28 18 17 -7 35 12 49 51 11 33 28 61 37 61 56 1
21 391 -36 406 -39 11 -40 9 -9 -25 51 -56 36 -249 -19 -257 -79 -11 -101 152
-40 301 25 63 -43 39 -105 -35 l-58 -71 -24 52 c-13 29 -18 60 -12 70 6 11 2
19 -9 19 -11 0 -26 -11 -34 -24z m-575 -386 c-13 -27 -30 -50 -39 -50 -9 0 -2
-15 16 -33 31 -31 31 -35 0 -52 -22 -13 -41 -12 -56 3 -12 12 -38 22 -58 22
-20 0 -36 9 -36 20 0 11 8 20 18 20 10 0 16 16 15 35 -2 27 10 34 52 29 39 -5
55 2 55 25 0 17 13 31 28 31 23 0 24 -9 5 -50z m676 -426 c-9 -19 -16 -40 -17
-48 -4 -30 -142 -136 -178 -136 -33 0 -35 5 -13 31 22 26 19 33 -18 42 -45 12
-62 51 -18 42 14 -3 23 7 20 21 -4 15 3 21 15 14 11 -7 20 -30 20 -51 0 -46 2
-46 68 -16 31 14 55 46 64 85 13 64 53 106 65 71 4 -11 0 -36 -8 -55z m-218
-224 c51 0 149 -85 149 -129 0 -17 -16 -31 -35 -32 -33 0 -33 -1 0 -21 39 -22
30 -58 -14 -58 -18 0 -25 19 -22 54 4 30 1 69 -6 85 -14 34 -143 49 -143 18 0
-39 42 -97 71 -97 16 0 29 -16 29 -35 0 -20 17 -46 37 -59 47 -29 70 -106 32
-106 -18 0 -29 -32 -33 -95 l-6 -95 -29 87 c-16 48 -40 92 -55 97 -33 13 -34
59 -1 73 18 8 15 17 -10 33 -19 12 -35 40 -35 61 0 21 -8 39 -17 39 -27 0 -63
97 -49 135 22 63 51 88 73 66 12 -12 40 -21 64 -21z m-1858 -313 c-27 -28
-115 36 -91 65 24 29 30 28 63 -13 20 -24 33 -48 28 -52z m-790 -174 c62 -24
69 -53 35 -150 -23 -65 -46 -79 -69 -42 -8 14 -21 14 -40 -2 -15 -12 -39 -19
-53 -14 -15 5 -1 20 33 37 71 34 90 78 33 78 -30 0 -41 12 -40 45 1 25 -3 90
-9 145 l-11 100 32 -88 c23 -63 47 -93 89 -109z m2869 36 c36 -68 36 -73 3
-91 -19 -11 -35 -29 -35 -40 0 -11 9 -15 20 -8 11 7 20 3 20 -9 0 -51 -72 -7
-111 68 -36 69 -36 71 3 71 19 0 28 11 22 28 -11 28 1 52 26 52 8 0 31 -32 52
-71z m8 -209 c0 -11 -8 -20 -18 -20 -10 0 -24 -25 -31 -55 -12 -48 -17 -50
-34 -20 -10 20 -14 44 -7 55 7 11 3 20 -9 20 -11 0 -21 9 -21 20 0 11 27 20
60 20 33 0 60 -9 60 -20z"/>
<path d="M8980 7203 l0 -1797 -505 -13 c-278 -7 -796 -19 -1151 -26 l-645 -13
5 -202 6 -202 70 5 c39 3 435 14 880 25 446 11 929 25 1075 33 l265 13 0 -113
0 -113 -265 0 c-768 2 -2035 -48 -2035 -79 1 -37 39 -103 40 -67 0 36 81 43
670 55 650 14 1109 28 1385 42 l205 10 -5 -735 c-2 -405 -7 -572 -10 -371 -3
201 -13 365 -22 365 -79 0 -359 -49 -381 -67 -17 -14 -151 -27 -336 -33 -244
-8 -311 -16 -326 -40 -15 -24 -19 -20 -20 18 l0 47 -559 -15 -560 -14 -5 237
-6 237 -370 -6 c-203 -4 -376 -13 -384 -20 -19 -20 7 -564 27 -564 9 0 17 89
17 198 0 252 14 322 63 322 20 0 37 -13 37 -30 0 -38 18 -38 62 1 65 60 328
64 359 7 14 -27 36 -54 49 -62 31 -19 24 -95 -11 -117 -36 -22 -15 -42 47 -46
45 -3 50 -14 62 -121 22 -213 19 -228 -41 -216 -46 9 -52 4 -42 -33 7 -28 2
-43 -15 -43 -16 0 -22 15 -16 37 12 46 -46 61 -301 76 -292 18 -414 -17 -323
-93 26 -22 29 -20 17 10 -12 31 -6 34 45 21 195 -50 343 -71 434 -61 l104 10
-70 -35 c-175 -87 -616 -23 -595 86 5 26 2 43 -8 37 -9 -5 -50 16 -92 48 -41
31 -111 72 -155 90 -153 61 -468 174 -489 174 -22 0 -20 -12 50 -373 67 -340
68 -472 4 -597 -28 -55 -93 -221 -145 -370 -52 -148 -101 -279 -109 -290 -17
-22 -46 -109 -81 -245 -27 -107 -48 -107 -102 0 -139 272 -602 764 -785 834
-42 16 -53 33 -53 86 0 61 -48 269 -65 287 -5 5 -62 18 -127 29 -65 12 -127
33 -138 47 -11 13 -65 37 -120 51 -385 104 -569 304 -571 620 0 102 -3 108
-30 72 -16 -21 -29 -59 -29 -84 0 -97 -95 -151 -242 -136 -107 10 -147 5 -220
-28 -82 -37 -208 -63 -448 -94 -54 -7 -153 -33 -220 -58 -66 -25 -219 -74
-340 -110 -213 -63 -430 -169 -430 -211 0 -11 -46 -23 -103 -26 -118 -6 -153
-22 -273 -119 -91 -73 -101 -114 -15 -57 28 18 51 28 51 22 0 -7 24 12 52 40
48 48 145 100 160 85 3 -3 -21 -24 -53 -46 -80 -53 -75 -62 41 -73 94 -10 189
-58 292 -151 21 -19 88 -75 148 -125 272 -222 413 -391 514 -620 12 -27 38
-86 58 -130 20 -44 37 -84 38 -90 18 -109 39 -176 62 -202 16 -17 27 -49 25
-70 -7 -81 4 -128 31 -128 34 0 63 66 33 76 -11 4 -21 29 -21 56 0 26 -9 48
-20 48 -11 0 -20 17 -20 39 0 21 -9 44 -20 51 -12 7 -16 21 -10 30 15 25 -31
200 -52 200 -10 0 -18 21 -18 48 0 26 -13 58 -29 71 -16 13 -23 38 -16 56 8
21 4 27 -12 17 -15 -10 -23 3 -23 39 0 30 -19 70 -41 90 -23 20 -41 41 -41 47
6 130 -359 488 -627 615 -66 31 -132 57 -145 57 -46 0 -47 40 -1 61 39 18 67
10 174 -50 69 -40 131 -68 136 -63 5 5 33 -13 62 -40 29 -27 71 -48 93 -46 54
5 150 -36 150 -64 0 -16 9 -16 30 2 25 21 30 18 30 -18 0 -44 29 -57 50 -22
25 41 54 19 42 -30 -9 -35 -4 -54 16 -62 15 -6 33 -28 38 -50 9 -33 18 -35 63
-18 30 11 84 20 121 20 37 0 73 8 79 19 16 24 -89 121 -131 121 -18 0 -44 14
-58 30 -14 17 -37 30 -52 30 -16 0 -28 8 -28 19 0 10 -18 24 -40 31 -22 7 -35
21 -29 31 6 11 0 19 -13 19 -14 0 -42 15 -63 34 -31 29 -44 30 -78 9 -23 -14
-35 -16 -28 -4 8 12 -4 21 -28 21 -22 0 -41 -10 -41 -22 0 -13 -32 1 -70 31
-39 30 -98 54 -131 55 -47 2 -105 30 -75 37 110 27 329 15 389 -20 39 -23 103
-50 144 -60 40 -10 93 -24 118 -32 35 -11 43 -7 34 16 -7 20 5 34 35 42 87 23
111 15 111 -37 0 -56 -24 -67 -43 -19 -6 17 -21 26 -33 18 -46 -28 26 -73 96
-59 64 12 66 10 46 -29 -12 -22 -32 -41 -43 -41 -37 0 31 -53 86 -67 60 -15
94 18 56 54 -19 17 -27 17 -34 -2 -11 -28 -66 -34 -66 -7 0 9 14 28 30 42 38
32 38 72 0 87 -61 24 -31 82 67 130 61 30 126 86 179 155 107 138 181 148 279
38 60 -69 105 -90 105 -50 0 11 9 20 20 20 11 0 20 -17 20 -37 0 -20 27 -65
60 -100 33 -34 60 -71 60 -80 0 -45 57 -66 77 -28 16 30 12 46 -20 73 -22 19
-35 47 -29 63 7 19 -3 29 -29 29 -25 0 -39 14 -39 38 0 21 -9 42 -21 46 -12 4
-24 20 -27 36 -3 17 -13 54 -21 84 -25 90 1 112 39 33 20 -41 47 -69 60 -64
24 9 210 -165 210 -197 0 -9 22 -16 49 -16 31 0 53 -14 61 -40 7 -22 28 -40
48 -40 40 0 227 -60 242 -78 16 -19 60 -24 60 -6 0 8 18 17 40 19 23 1 40 -10
40 -26 0 -17 20 -29 49 -29 56 0 112 -75 67 -89 -14 -4 -39 -12 -56 -17 -24
-7 -22 -13 9 -25 25 -10 41 -8 46 7 11 32 38 31 41 -1 2 -14 9 -54 16 -90 8
-42 5 -65 -10 -65 -45 0 -20 -36 43 -61 65 -27 99 -64 108 -117 10 -61 48 -73
83 -27 62 82 252 -12 216 -107 -16 -41 -57 -35 -142 23 -53 36 -82 45 -97 30
-15 -15 -14 -21 4 -21 14 0 20 -9 13 -20 -24 -38 48 -85 110 -73 61 12 103
-20 61 -46 -18 -12 -16 -18 6 -27 17 -7 34 -1 38 12 7 18 16 18 39 -1 16 -13
37 -18 46 -10 9 8 10 4 2 -10 -8 -14 -7 -25 2 -25 9 0 25 -20 36 -45 11 -25
29 -45 40 -46 37 0 100 -46 85 -61 -8 -8 -1 -24 16 -37 29 -20 43 -60 47 -126
1 -14 12 -25 24 -25 13 0 51 -30 85 -67 35 -37 83 -78 108 -91 53 -28 56 -48
14 -90 -17 -18 -26 -41 -18 -53 7 -12 -6 -37 -29 -57 -41 -36 -59 -75 -24 -53
9 6 26 -1 37 -14 30 -39 43 -114 22 -127 -11 -6 -12 -22 -2 -35 10 -13 16 -47
15 -77 -1 -29 5 -49 14 -43 9 5 16 -27 16 -72 0 -44 9 -81 20 -81 11 0 20 -24
20 -54 0 -29 17 -90 37 -135 21 -44 48 -144 62 -221 13 -76 33 -150 44 -164
11 -13 23 -92 26 -175 4 -102 19 -176 48 -234 23 -46 35 -93 27 -105 -8 -12
-14 -44 -14 -72 0 -53 -40 -68 -87 -33 -17 14 -30 14 -40 0 -7 -12 -31 -17
-53 -12 -22 5 -155 10 -295 12 -140 2 -255 8 -255 15 0 6 -52 11 -115 10 -63
-2 -125 5 -138 13 -13 10 -37 3 -55 -16 -18 -17 -32 -23 -32 -12 0 11 -32 17
-70 13 -38 -3 -70 0 -70 8 0 19 -103 16 -134 -3 -13 -9 -29 -6 -36 5 -8 12
-50 17 -102 10 -105 -12 -193 5 -175 35 8 13 4 15 -10 7 -13 -8 -18 -24 -12
-34 8 -13 -40 -16 -131 -9 -123 9 -142 6 -133 -20 12 -29 -57 -30 -105 0 -11
6 -25 3 -31 -8 -7 -11 -42 -15 -77 -8 -35 6 -128 12 -207 14 -79 2 -150 10
-158 18 -9 8 -27 5 -42 -8 -20 -16 -34 -16 -55 1 -15 13 -31 15 -35 5 -13 -33
-141 0 -152 40 -5 20 -17 37 -25 37 -31 0 -36 80 -6 97 27 15 27 18 -2 29 -18
7 -32 3 -32 -8 0 -11 -10 -14 -23 -6 -16 10 -13 21 10 38 43 32 42 56 -2 42
-24 -8 -48 7 -74 47 -22 32 -49 53 -60 46 -12 -6 -14 -3 -4 7 9 10 26 18 39
18 13 0 22 44 23 113 1 62 -5 110 -12 105 -17 -11 -37 44 -37 103 0 36 -8 45
-33 35 -26 -10 -31 -5 -21 20 7 18 -1 47 -18 63 -17 17 -25 31 -18 31 19 0
-32 67 -137 180 -166 181 -158 96 30 -320 23 -49 50 -106 60 -126 10 -20 24
-96 30 -170 l12 -134 -59 68 c-50 58 -64 65 -97 46 -37 -22 -37 -23 6 -23 26
-1 45 -13 45 -31 0 -16 9 -30 19 -30 85 0 281 -279 281 -399 l0 -61 2461 0
2461 0 39 87 c21 47 44 137 51 200 15 129 34 152 88 103 97 -87 299 -111 510
-60 66 16 126 29 134 29 8 1 54 -60 102 -134 132 -202 143 -209 272 -175 211
55 303 57 433 9 65 -25 162 -49 214 -54 l95 -9 -1 727 c-2 666 -4 718 -30 621
-28 -105 -28 -143 0 -208 8 -19 10 -46 4 -60 -6 -16 -10 -13 -11 9 -2 38 -32
47 -52 15 -24 -39 -28 -101 -6 -88 15 10 18 -3 8 -40 -12 -50 -10 -52 28 -32
41 22 41 21 36 -389 -3 -226 -14 -410 -24 -409 -10 1 -25 -11 -34 -25 -14 -21
-17 -20 -18 5 0 32 -96 89 -116 69 -17 -17 -84 51 -86 87 -1 21 -5 23 -11 7
-15 -37 -83 -31 -80 8 3 36 -96 61 -116 29 -6 -10 8 -13 32 -7 28 7 39 4 30
-10 -7 -12 -2 -27 12 -33 14 -6 -18 -9 -70 -7 -52 3 -95 -2 -95 -10 0 -8 -19
-15 -41 -15 -23 0 -36 9 -29 20 7 11 -7 20 -30 20 -23 0 -37 9 -30 20 7 11 3
20 -9 20 -11 0 -21 -14 -21 -31 0 -24 -8 -26 -41 -9 -22 12 -35 30 -29 40 6 9
2 23 -10 30 -30 18 -24 82 10 110 16 13 24 33 18 44 -14 22 -38 3 -38 -31 0
-12 -14 -23 -30 -24 -17 0 -39 -6 -50 -13 -25 -16 -78 22 -96 69 -7 19 -32 35
-55 35 -25 0 -36 9 -28 22 10 16 3 16 -26 1 -22 -12 -47 -15 -56 -7 -8 8 -9 3
-1 -11 11 -19 -20 -24 -139 -20 -110 4 -156 -1 -164 -20 -13 -35 -46 -31 -77
10 -18 23 -27 26 -27 9 -1 -15 -10 -21 -21 -14 -12 7 -16 20 -11 29 6 9 -5 16
-24 16 -70 -1 -87 5 -75 25 7 11 -1 20 -18 20 -16 0 -39 -16 -50 -35 -16 -28
-25 -30 -45 -10 -40 40 -77 29 -77 -23 0 -66 -19 -112 -47 -113 -13 0 -45 -31
-73 -69 -57 -78 -80 -87 -80 -31 0 21 -9 44 -20 51 -12 7 -15 -11 -7 -49 8
-42 4 -61 -13 -61 -15 0 -20 -16 -14 -42 8 -29 3 -38 -16 -31 -14 6 -42 -11
-62 -36 -29 -39 -41 -43 -73 -24 -31 19 -43 16 -68 -17 -29 -38 -30 -38 -24
-2 6 32 -5 38 -58 37 -100 -2 -101 -3 -111 -40 -9 -32 -10 -32 -12 1 -1 20
-11 31 -22 24 -10 -6 -39 -2 -62 11 -26 14 -48 16 -56 4 -13 -20 -110 -17
-167 5 -24 10 -35 5 -35 -16 0 -25 -12 -28 -63 -13 -34 10 -70 13 -78 8 -9 -5
-23 1 -30 13 -10 16 -27 8 -51 -24 -34 -44 -50 -33 -40 27 1 8 -5 16 -13 17
-8 0 -31 4 -50 8 -24 4 -35 -6 -35 -34 0 -33 -10 -39 -50 -31 -34 6 -50 0 -50
-18 0 -32 -150 -39 -169 -8 -7 11 -24 15 -39 9 -15 -6 -33 6 -41 26 -14 33
-17 32 -32 -9 -22 -56 -59 -59 -59 -5 0 22 -8 40 -18 40 -10 0 -14 -18 -8 -40
17 -66 -33 -46 -63 25 -45 107 37 192 90 93 21 -40 23 -40 50 -5 19 26 28 29
28 10 1 -20 9 -22 26 -8 25 20 42 20 153 -4 66 -15 94 33 32 56 -16 7 -30 26
-30 42 0 36 -45 40 -101 10 -32 -17 -39 -14 -39 19 0 53 119 117 122 65 1 -19
8 -12 16 17 8 29 3 71 -12 100 -14 28 -26 69 -26 93 0 25 -16 46 -40 53 -22 6
-40 24 -40 41 0 17 -26 35 -60 43 -33 7 -70 31 -81 52 -26 49 -84 51 -75 2 3
-19 -15 -57 -39 -83 -25 -27 -45 -60 -45 -75 0 -37 -33 -32 -48 7 -24 60 -78
337 -75 381 1 24 -11 52 -26 61 -17 9 -32 52 -35 100 -4 48 -18 89 -33 95 -17
7 -24 29 -18 61 5 27 2 54 -7 60 -39 24 -16 209 24 188 21 -11 38 -13 38 -5 0
9 9 3 20 -14 12 -19 19 -21 20 -5 0 28 86 88 136 95 72 10 124 36 124 62 0 47
-9 58 -44 53 -23 -3 -41 20 -57 70 -23 73 -69 145 -55 87 10 -44 -32 -46 -59
-2 -21 33 -20 40 5 40 17 0 30 18 30 40 0 22 9 40 19 40 11 0 14 14 7 32 -6
18 1 40 16 50 22 13 22 17 2 18 -15 0 -21 9 -14 20 7 12 21 16 31 10 10 -7 24
13 31 44 19 80 30 94 52 63 13 -18 14 -12 5 21 -11 37 -7 46 16 37 16 -6 41
-3 57 7 18 11 19 17 4 18 -13 0 -22 18 -20 41 3 43 77 50 129 12 16 -11 25
-10 25 5 0 12 22 22 50 22 36 0 53 13 62 49 6 27 22 48 34 45 13 -2 29 36 36
86 7 50 30 149 51 220 26 91 34 160 25 230 -9 76 -3 119 25 179 62 131 19 143
-144 40 -92 -58 -99 -59 -99 -18 0 17 9 26 20 19 11 -7 20 -5 20 4 0 9 35 38
79 65 43 27 77 58 75 70 -2 12 14 18 36 15 22 -3 62 -9 90 -14 27 -4 53 -18
57 -31 4 -13 26 -42 47 -63 22 -22 34 -52 28 -68 -17 -44 8 -88 50 -88 21 0
38 9 38 19 0 11 14 15 30 8 17 -6 29 -22 26 -34 -8 -48 26 -111 55 -100 16 6
29 1 29 -11 0 -12 8 -22 18 -22 29 0 177 -154 192 -199 7 -23 20 -41 30 -41
13 0 40 -76 49 -140 1 -5 8 -20 16 -33 8 -13 10 -38 3 -55 -8 -22 -1 -32 22
-32 21 0 30 -11 24 -28 -6 -15 6 -59 26 -98 21 -38 33 -74 28 -80 -37 -37 -23
-129 18 -120 33 7 37 5 16 -10 -33 -23 -16 -80 28 -97 50 -19 91 137 44 166
-10 7 -12 40 -6 74 10 49 8 57 -12 37 -42 -42 -62 -26 -29 25 33 50 27 160
-10 183 -10 6 -12 20 -6 30 7 11 2 32 -10 47 -16 19 -17 31 -2 41 14 8 8 31
-19 64 -22 28 -40 63 -40 76 0 14 -14 36 -30 50 -19 16 -26 41 -18 65 8 26 5
35 -9 27 -13 -8 -27 8 -35 37 -7 28 -25 51 -40 51 -15 0 -33 23 -40 50 -7 28
-20 50 -30 50 -10 0 -18 19 -18 41 0 31 12 41 45 38 95 -7 135 2 135 31 0 17
9 30 20 30 92 0 -38 66 -170 87 -33 5 -87 19 -120 30 -33 12 -99 31 -148 43
-156 40 -69 64 151 42 177 -19 213 -16 328 18 191 59 283 47 209 -27 -16 -17
-30 -57 -30 -89 0 -65 -41 -94 -80 -57 -19 18 -23 16 -16 -7 5 -16 27 -30 48
-30 48 0 55 -146 8 -184 -21 -17 -22 -25 -5 -25 14 -1 25 -19 25 -41 0 -22 8
-40 17 -40 10 0 20 -47 22 -105 2 -58 6 -145 8 -195 1 -49 8 -94 14 -100 20
-18 61 -181 50 -199 -13 -21 7 -81 28 -81 8 0 15 43 16 95 0 52 7 121 14 153
7 32 6 64 -3 70 -32 24 -65 100 -47 111 10 7 12 36 4 66 -35 135 5 445 57 445
20 0 150 -396 173 -530 6 -33 21 -78 33 -100 12 -22 19 -61 16 -86 -3 -25 3
-57 14 -70 10 -13 25 -60 33 -103 8 -44 27 -104 43 -134 15 -30 28 -78 28
-106 0 -32 11 -51 30 -51 19 0 30 19 30 50 0 28 -9 50 -21 50 -13 0 -16 26 -8
68 8 43 2 88 -17 125 -30 57 -59 206 -62 313 -1 30 -15 64 -32 74 -25 17 -26
19 -1 20 23 0 24 5 5 24 -13 13 -24 38 -23 55 1 64 -112 380 -136 381 -25 0
-35 63 -13 85 19 20 68 -7 68 -37 0 -15 9 -29 20 -30 11 -2 30 -4 42 -5 12 -2
41 -39 65 -83 24 -44 63 -113 88 -152 61 -99 123 -298 121 -393 -1 -117 24
-240 54 -265 36 -30 57 7 37 65 -20 58 -22 554 -2 542 8 -5 15 -20 15 -34 0
-13 38 -37 84 -54 45 -16 87 -42 92 -57 5 -16 0 -22 -12 -15 -68 43 -119 -22
-102 -130 25 -168 36 -498 16 -486 -19 12 -8 -33 26 -104 13 -28 13 -55 0 -80
-14 -26 -12 -44 6 -60 20 -19 28 7 39 129 9 100 6 156 -7 160 -12 4 -3 26 19
49 30 33 33 47 14 59 -19 13 -17 21 8 36 18 11 38 42 45 70 7 27 26 50 42 50
17 0 30 10 30 21 0 12 -10 15 -23 7 -13 -8 -18 -6 -12 4 7 11 0 73 -16 139
-25 113 -25 117 7 77 124 -154 154 -200 154 -237 1 -22 10 -41 20 -41 11 0 30
-7 43 -15 31 -20 46 26 24 70 -11 21 -11 35 0 35 40 0 103 -230 107 -394 4
-134 53 -67 55 74 2 107 33 139 49 52 15 -78 -17 -292 -54 -369 -13 -26 -23
-82 -23 -125 0 -47 -11 -81 -28 -88 -15 -6 -22 -24 -16 -40 7 -17 5 -30 -3
-30 -9 0 -17 -22 -19 -50 -4 -38 5 -50 35 -50 35 0 40 -14 41 -105 0 -126 32
-92 42 45 5 76 0 93 -40 112 -39 20 -41 25 -12 36 19 7 45 3 59 -8 22 -18 78
175 74 255 -1 8 10 29 23 45 13 17 23 55 21 85 -1 30 6 55 16 55 10 0 14 18 7
40 -6 22 -16 58 -22 80 -9 30 -4 37 20 28 17 -7 31 -25 31 -40 0 -15 11 -26
25 -23 14 3 23 -6 20 -20 -3 -14 7 -25 23 -25 32 0 96 -90 89 -125 -9 -44 25
-115 54 -115 16 0 29 -9 29 -20 0 -11 18 -20 40 -20 55 0 51 -39 -5 -42 -34
-2 -37 -5 -10 -12 20 -5 30 -17 24 -28 -6 -10 -2 -18 9 -18 11 0 25 8 31 19
13 20 79 15 140 -10 25 -10 41 -8 46 7 5 13 20 24 35 24 65 0 66 -216 2 -284
-23 -25 -42 -59 -43 -76 0 -20 -18 -29 -55 -26 -53 3 -54 1 -54 -105 0 -60 -7
-108 -15 -106 -8 2 -37 -7 -65 -19 -37 -16 -41 -22 -14 -23 49 -1 -18 -99 -69
-100 -18 -1 -38 -24 -45 -51 -7 -28 -22 -50 -32 -50 -11 0 -20 -9 -20 -21 0
-24 64 6 120 58 20 18 82 72 137 120 110 94 215 275 236 409 9 52 18 69 30 51
9 -15 17 1640 17 3678 0 2038 -4 3705 -10 3705 -5 0 -10 -809 -10 -1797z m0
-1993 c0 -112 -5 -130 -36 -130 -46 0 -84 38 -84 84 0 20 -13 36 -30 36 -54 0
-31 49 45 94 104 62 105 61 105 -84z m-1910 -20 c0 -26 -12 -39 -35 -37 -22 2
-35 -12 -35 -35 0 -21 -9 -38 -20 -38 -29 0 -25 135 5 147 47 19 85 3 85 -37z
m1320 -52 c246 -29 323 -54 180 -58 -55 -2 -212 -7 -350 -11 -137 -4 -349 -11
-470 -17 -205 -9 -214 -8 -140 18 44 15 107 28 140 30 33 1 132 19 220 39 88
20 174 33 190 30 17 -4 120 -17 230 -31z m521 -1220 c24 -39 37 -818 13 -818
-12 0 -27 9 -34 20 -35 56 -323 12 -339 -52 -6 -27 -21 -48 -31 -48 -11 0 -20
-9 -20 -20 0 -37 57 -20 70 21 20 63 58 36 81 -58 21 -87 59 -107 59 -31 0
123 114 203 189 133 38 -35 41 -64 46 -392 3 -194 12 -353 20 -353 8 0 15
-106 15 -235 0 -138 -8 -224 -18 -208 -9 15 -44 33 -78 40 -58 13 -764 677
-764 720 0 48 -172 205 -299 271 -152 80 -312 204 -470 365 -127 129 -242 207
-306 207 -30 0 -69 24 -102 64 -29 35 -82 90 -118 123 -59 55 -100 233 -54
233 36 0 130 -66 123 -86 -10 -28 196 -234 234 -234 13 0 51 28 83 62 96 101
221 179 273 170 25 -5 52 -10 60 -11 25 -2 159 -149 189 -206 36 -70 28 -72
141 42 53 53 114 106 135 118 32 17 35 26 14 51 -21 25 -19 32 11 38 55 12
106 -6 106 -36 0 -16 18 -28 40 -28 22 0 40 -8 40 -17 0 -9 23 -27 51 -40 40
-18 50 -17 47 2 -6 54 3 97 19 87 9 -6 23 -279 31 -606 15 -679 26 -826 62
-826 18 0 22 36 15 137 -11 145 13 223 68 223 20 0 27 -11 20 -30 -7 -18 0
-30 16 -30 42 0 58 37 31 70 -30 36 -9 70 41 70 22 0 39 9 39 20 0 11 -9 20
-20 20 -11 0 -20 12 -20 28 0 38 -66 52 -107 22 -20 -15 -33 -52 -33 -97 0
-40 -9 -73 -19 -73 -11 0 -19 80 -19 185 1 102 -5 354 -12 560 -11 334 -9 377
20 388 25 9 311 53 424 65 13 1 30 -8 37 -20z m-6232 -60 c-18 -33 -15 -46 12
-66 29 -22 30 -31 7 -68 -32 -51 -78 -58 -78 -13 0 16 -13 35 -30 42 -45 17
-36 59 23 106 67 53 95 52 66 -1z m2884 -99 c18 -22 42 -39 52 -39 10 0 40
-18 65 -40 25 -22 39 -40 30 -40 -10 0 3 -22 28 -48 25 -26 38 -52 29 -57 -38
-20 -216 2 -224 28 -5 15 -30 55 -56 89 -26 34 -47 76 -47 92 0 17 -13 42 -30
56 -16 14 -30 37 -30 52 0 34 132 -34 183 -93z m1637 85 c0 -38 -59 -96 -59
-59 -1 19 -11 35 -22 35 -12 0 -16 9 -9 20 15 24 90 27 90 4z m-5240 -204 l59
-66 20 53 c24 63 52 68 67 13 6 -23 27 -40 49 -40 85 0 59 -101 -37 -141 -83
-34 -237 14 -206 64 7 11 23 9 40 -4 22 -19 28 -16 28 16 0 55 -49 70 -126 38
-35 -15 -75 -23 -87 -19 -15 5 -20 -6 -14 -30 6 -24 -2 -43 -22 -51 -42 -16
-67 45 -29 69 15 9 19 18 7 18 -61 1 -94 -111 -39 -133 17 -6 30 -19 30 -29 0
-36 -72 -16 -146 41 -70 52 -87 56 -220 51 -193 -8 -245 18 -143 73 78 42 83
41 214 -26 19 -9 35 -10 35 -2 0 19 191 112 230 112 16 0 24 7 19 15 -51 83
196 62 271 -22z m3477 -480 c33 -33 79 -60 101 -60 49 0 54 -25 13 -59 -19
-16 -60 -19 -120 -10 -105 16 -131 38 -66 58 l45 13 -45 18 c-50 21 -63 100
-17 100 16 0 56 -27 89 -60z m-137 -230 c-54 -57 -74 -53 -41 8 12 23 37 42
55 42 27 0 24 -9 -14 -50z m236 20 c7 -6 -36 -186 -59 -247 -21 -54 -70 -47
-60 9 5 29 -10 22 -65 -31 -75 -72 -89 -111 -47 -128 15 -6 10 -11 -11 -11
-20 -1 -63 -16 -96 -33 -68 -35 -60 -1 24 107 20 26 31 59 25 75 -7 18 1 29
21 29 29 0 41 32 34 91 -1 12 20 43 48 69 27 26 50 60 50 75 0 24 107 20 136
-5z m-596 -1050 c42 -22 89 -147 72 -191 -26 -68 -136 10 -162 115 -22 87 13
117 90 76z m409 -1304 c58 -83 22 -216 -58 -216 -47 0 -111 68 -123 132 -22
114 115 178 181 84z m1611 -346 c0 -16 -9 -30 -20 -30 -11 0 -20 -13 -20 -30
0 -19 -19 -30 -52 -30 -43 0 -49 5 -30 28 13 15 22 35 20 45 -6 37 4 47 52 47
31 0 50 -11 50 -30z"/>
<path d="M8553 3837 c-62 -36 4 -59 71 -25 31 16 56 33 56 39 0 17 -90 8 -127
-14z"/>
<path d="M8809 3794 c-15 -39 14 -83 48 -71 13 4 10 26 -7 57 -24 45 -29 46
-41 14z"/>
<path d="M8512 3668 c-28 -74 31 -148 118 -147 85 1 263 33 206 37 -24 1 -31
15 -25 51 9 47 7 48 -101 37 -87 -9 -119 -4 -148 22 -35 32 -38 32 -50 0z"/>
<path d="M7672 3504 c-8 -13 -40 -24 -72 -24 -51 0 -60 -9 -71 -70 -7 -38 -21
-65 -31 -59 -10 6 -18 2 -18 -9 0 -27 722 -14 772 14 34 19 31 22 -22 34 -33
8 -69 16 -80 19 -11 3 -34 -6 -50 -21 -39 -33 -81 -8 -85 49 -2 24 -4 43 -4
43 -1 0 -30 8 -66 19 -40 11 -65 11 -65 0 0 -11 14 -19 30 -19 17 0 30 -13 30
-30 0 -16 -10 -30 -22 -30 -17 0 -16 -8 1 -28 25 -31 3 -32 -61 -4 -17 7 -55
4 -85 -7 -47 -18 -53 -15 -54 24 -3 70 -29 127 -47 99z"/>
<path d="M8796 3423 c-8 -52 -4 -57 33 -44 49 18 55 88 8 97 -22 4 -35 -12
-41 -53z"/>
<path d="M8525 3447 c-105 -43 23 -58 145 -18 l80 27 -100 0 c-55 1 -111 -4
-125 -9z"/>
<path d="M7617 3257 c-29 -8 2 -14 81 -15 71 -1 123 3 117 10 -18 17 -143 21
-198 5z"/>
<path d="M7858 3260 c-2 -5 -4 -23 -5 -40 -2 -23 -32 -31 -120 -33 -252 -7
-112 -67 158 -67 171 0 245 -22 154 -46 -21 -6 -12 -10 22 -12 42 -1 54 6 46
27 -9 23 12 30 93 35 61 4 100 14 94 26 -5 11 -16 18 -24 15 -7 -2 -9 18 -4
45 8 48 4 50 -93 50 -62 0 -97 -8 -89 -20 7 -11 25 -20 41 -20 16 0 29 -9 29
-20 0 -11 -60 -20 -140 -20 -171 0 -209 53 -45 64 l95 7 -105 9 c-58 6 -106 6
-107 0z"/>
<path d="M8646 3214 c-16 -27 -2 -28 114 -14 122 16 116 26 -17 28 -48 1 -91
-5 -97 -14z"/>
<path d="M8700 2772 c0 -39 -7 -72 -15 -72 -9 0 -54 -49 -100 -108 -98 -126
-111 -192 -37 -192 102 0 211 -142 212 -275 0 -32 12 -45 40 -45 77 0 53 135
-41 235 -44 47 -90 85 -101 85 -34 0 1 161 51 235 25 36 50 59 57 52 19 -18
114 -26 114 -9 0 14 -78 89 -145 140 -32 24 -35 20 -35 -46z"/>
<path d="M8827 2567 c-12 -5 -18 -27 -12 -48 11 -45 65 -17 65 33 0 29 -12 32
-53 15z"/>
<path d="M5240 520 c0 -22 13 -40 30 -40 17 0 30 18 30 40 0 22 -13 40 -30 40
-17 0 -30 -18 -30 -40z"/>
<path d="M3672 8943 c-89 -22 -127 -23 -154 -6 -42 26 -64 2 -45 -48 11 -28
29 -32 115 -20 139 19 133 19 212 2 67 -15 69 -15 36 22 -18 20 -33 45 -33 54
0 26 -7 26 -131 -4z"/>
<path d="M3214 8895 c-54 -43 -36 -175 23 -175 8 0 11 -30 7 -68 -9 -81 28
-114 56 -48 l20 46 -5 -48 c-3 -26 8 -54 25 -61 17 -8 50 -25 76 -38 42 -22
44 -21 32 27 -10 41 -6 48 20 38 17 -7 32 -33 32 -59 0 -26 10 -53 21 -60 12
-7 17 -25 11 -40 -6 -15 -2 -33 8 -39 11 -7 33 -42 51 -79 39 -82 99 -116 83
-46 -14 64 16 140 36 90 18 -43 50 -46 50 -5 0 17 -22 41 -48 53 -26 12 -60
45 -74 74 -37 74 -45 98 -20 63 19 -26 21 -26 22 2 0 33 -79 118 -111 118 -11
1 -41 18 -69 40 -27 22 -80 39 -117 40 -53 0 -65 7 -55 32 7 17 6 42 -2 55 -8
13 -12 48 -9 78 7 66 7 66 -63 10z"/>
<path d="M4204 8904 c-25 -17 -84 -32 -130 -34 -154 -7 -174 -10 -174 -29 0
-11 25 -34 55 -51 l55 -31 -70 13 -70 13 50 -48 c47 -45 52 -45 76 -12 26 34
85 47 110 23 67 -68 315 14 284 94 -23 60 -133 97 -186 62z"/>
<path d="M3075 8843 c-5 -20 3 -53 18 -73 25 -35 27 -33 27 25 0 71 -30 103
-45 48z"/>
<path d="M3369 8859 c-17 -29 28 -79 72 -79 30 0 32 7 12 50 -24 52 -61 65
-84 29z"/>
<path d="M2850 8809 c-33 -15 -89 -38 -125 -53 -62 -25 -87 -56 -45 -56 11 0
20 -7 20 -15 0 -8 -44 -12 -97 -8 -100 7 -138 -21 -104 -76 13 -20 25 -20 61
-1 28 15 78 19 132 11 84 -13 88 -11 88 37 0 27 9 55 20 62 11 7 20 3 20 -9 0
-11 14 -21 30 -21 17 0 30 -18 30 -40 0 -22 13 -40 29 -40 16 0 38 -16 49 -35
10 -19 25 -28 33 -21 25 25 149 -121 149 -175 0 -68 -49 -180 -111 -253 -28
-34 -46 -65 -41 -70 17 -18 172 17 161 36 -7 11 -27 10 -50 -3 -27 -14 -39
-14 -39 1 0 12 14 26 30 33 17 6 30 24 30 40 0 22 13 26 45 16 25 -8 39 -8 32
0 -7 8 -5 42 5 76 12 44 10 67 -6 78 -67 41 -39 115 38 103 81 -13 74 21 -19
90 -19 15 -35 44 -35 65 0 22 -9 39 -20 39 -11 0 -20 14 -20 30 0 38 -19 38
-48 0 -28 -38 -96 -20 -130 34 -23 38 -22 41 16 31 48 -13 56 20 17 68 -38 47
-79 54 -145 26z"/>
<path d="M4000 8665 c0 -8 27 -27 59 -41 33 -15 55 -37 49 -51 -5 -14 13 -52
41 -84 65 -75 70 -24 9 80 -51 86 -158 151 -158 96z"/>
<path d="M4629 8579 c-7 -12 -7 -52 0 -90 7 -39 3 -87 -10 -111 -13 -24 -14
-37 -3 -31 11 7 31 -1 44 -17 16 -20 17 -30 3 -30 -12 0 -41 -20 -65 -45 -34
-35 -41 -37 -32 -10 16 44 -17 47 -34 3 -22 -58 -12 -88 30 -88 57 0 198 81
198 114 0 14 8 26 18 26 71 0 7 191 -75 226 -31 13 -53 35 -48 49 10 31 -8 33
-26 4z"/>
<path d="M3291 8365 c-36 -49 -36 -51 -2 -38 31 12 33 9 12 -16 -13 -16 -19
-38 -13 -48 18 -29 -8 -83 -40 -83 -20 0 -23 -12 -9 -48 10 -26 12 -55 5 -63
-8 -8 0 -10 16 -5 17 5 33 26 37 46 4 21 19 49 33 62 20 21 25 221 5 240 -3 2
-22 -19 -44 -47z"/>
<path d="M8750 8069 c-11 -4 -150 -26 -310 -49 -159 -24 -321 -47 -360 -53
-38 -5 -109 -19 -156 -29 -47 -10 -209 -37 -360 -60 -151 -23 -359 -55 -464
-71 -104 -16 -239 -37 -300 -46 -406 -61 -674 -104 -700 -111 -16 -5 -70 -14
-120 -20 -266 -32 -416 -68 -380 -90 18 -11 210 -11 210 0 0 0 59 6 130 11
133 10 209 18 325 37 36 5 92 14 125 19 33 5 60 10 60 12 0 2 45 8 99 13 55 5
111 19 124 31 23 18 139 32 342 39 39 2 59 11 52 23 -8 12 -3 15 9 7 13 -8 41
-4 62 7 26 14 44 14 52 1 8 -13 27 -13 54 2 23 13 81 25 129 28 48 3 103 18
121 33 23 19 29 19 19 2 -21 -34 88 -34 135 1 20 14 73 24 119 21 124 -9 305
36 223 55 l-60 13 65 3 c36 1 65 -6 65 -16 0 -18 144 -9 200 13 17 7 57 14 90
17 243 20 343 46 270 70 -31 10 -5 13 72 6 101 -9 125 -6 135 21 7 18 33 40
58 50 46 19 -86 29 -135 10z"/>
<path d="M8400 7679 c-203 -31 -563 -85 -800 -119 -236 -34 -511 -75 -610 -91
-99 -15 -279 -41 -400 -58 -810 -111 -1158 -171 -1135 -194 11 -11 214 11 506
53 269 39 556 80 637 90 156 21 987 146 1192 180 66 11 336 51 600 89 264 38
503 77 530 88 95 39 -133 22 -520 -38z"/>
<path d="M3813 7623 c-48 -53 -41 -65 22 -39 93 40 123 76 62 76 -28 0 -66
-16 -84 -37z"/>
<path d="M8840 7522 c0 -18 47 -42 81 -42 10 0 13 14 6 30 -12 32 -87 42 -87
12z"/>
<path d="M3860 7456 c-114 -41 -220 -65 -320 -70 -82 -5 -195 -11 -250 -15
-55 -3 -129 -7 -164 -9 -44 -1 -67 -14 -76 -41 -9 -29 -38 -42 -122 -52 -113
-14 -129 -33 -33 -39 60 -4 157 37 168 70 5 14 43 14 123 -1 63 -12 144 -16
180 -9 35 7 118 18 184 24 66 6 132 20 146 31 44 36 248 53 309 26 26 -11 33
-8 24 14 -13 35 40 83 77 69 33 -12 107 40 85 61 -9 8 -20 4 -25 -10 -5 -14
-36 -25 -69 -25 -34 0 -54 8 -47 20 18 29 0 24 -190 -44z"/>
<path d="M8270 7447 c-158 -19 -195 -30 -175 -50 50 -50 346 -7 314 44 -11 19
-25 20 -139 6z"/>
<path d="M4455 7337 c-30 -11 -55 -29 -55 -39 0 -23 14 -23 63 3 28 16 58 16
100 1 52 -18 59 -17 49 10 -7 17 -12 35 -12 40 0 14 -88 5 -145 -15z"/>
<path d="M3210 7145 c-58 -9 -57 -10 38 -46 100 -38 163 -30 134 17 -18 30
-87 41 -172 29z"/>
<path d="M4520 7117 c-27 -11 -84 -15 -125 -8 -50 8 -91 2 -120 -18 -25 -16
-105 -38 -179 -50 -193 -31 -271 -84 -217 -150 36 -43 118 -15 105 36 -10 38
-7 40 21 17 39 -32 171 -47 186 -22 7 10 20 14 29 8 9 -6 22 -2 29 8 45 73
385 39 515 -51 42 -29 82 -47 89 -41 18 19 -45 106 -106 148 -29 20 -78 61
-108 91 -30 30 -58 54 -62 54 -4 -1 -29 -11 -57 -22z"/>
<path d="M1630 6979 c-436 -70 -1267 -187 -1505 -212 -106 -11 -125 -19 -125
-52 0 -33 10 -37 75 -26 41 7 158 21 260 31 102 10 193 23 203 29 9 6 90 15
180 21 89 6 185 20 213 31 29 10 79 19 111 19 33 0 56 7 51 16 -6 9 40 12 101
8 62 -3 117 2 124 12 7 10 35 25 62 33 40 11 44 9 20 -9 -24 -19 -21 -21 20
-12 28 6 80 12 116 12 37 0 62 7 57 15 -9 14 59 23 202 26 60 2 96 37 40 40
-14 1 -7 10 15 19 52 22 -78 22 -220 -1z"/>
<path d="M2960 6895 c-71 -9 -156 -30 -188 -46 -32 -16 -77 -29 -100 -29 -74
-1 -172 -143 -172 -250 0 -62 51 -47 68 19 23 90 281 176 542 181 77 1 101 10
106 36 7 36 44 48 44 14 0 -32 35 -23 48 13 16 41 9 48 -61 60 -116 19 -160
19 -287 2z"/>
<path d="M4307 6724 c-123 -40 -200 -94 -239 -168 -51 -97 -29 -106 57 -22
155 149 328 200 462 136 40 -19 73 -43 73 -53 0 -10 -27 -4 -59 12 -94 49
-352 18 -351 -41 3 -153 68 -184 295 -140 74 14 139 21 145 16 5 -6 10 4 10
21 0 18 20 39 44 46 36 12 39 18 15 37 -16 12 -42 46 -57 76 -55 106 -215 139
-395 80z m291 -155 c22 -21 23 -33 5 -56 -26 -31 -102 -58 -104 -36 -1 7 -4
43 -8 79 -7 70 41 76 107 13z m-138 -69 c0 -11 -31 -20 -70 -20 -38 0 -70 9
-70 20 0 11 32 20 70 20 39 0 70 -9 70 -20z"/>
<path d="M1640 6707 c-104 -15 -514 -74 -910 -130 -396 -55 -724 -104 -728
-109 -31 -30 51 -30 273 1 140 19 444 61 675 92 231 32 492 68 580 80 289 39
439 64 480 80 65 26 -156 18 -370 -14z"/>
<path d="M5485 6575 c-44 -56 -42 -118 7 -189 58 -86 69 -347 19 -444 -26 -50
-37 -154 -14 -131 5 5 21 -1 34 -12 29 -24 39 -1 59 131 7 44 22 123 33 176
43 194 -65 562 -138 469z"/>
<path d="M3324 6540 c7 -58 62 -68 73 -13 4 26 -1 33 -17 23 -14 -8 -33 -3
-43 12 -14 20 -17 14 -13 -22z"/>
<path d="M4097 6471 l-84 -89 -56 40 -57 41 0 -42 c0 -22 -9 -41 -20 -41 -11
0 -20 11 -20 25 0 14 -22 26 -50 28 l-50 3 40 -56 c52 -73 50 -100 -5 -101
-44 0 -44 -1 -6 -30 21 -16 55 -29 76 -29 23 0 32 -9 23 -23 -9 -15 -5 -18 9
-9 13 8 18 23 12 33 -20 33 22 20 64 -19 48 -44 127 -73 127 -45 0 11 -28 43
-62 71 -63 54 -37 73 30 22 26 -20 46 -23 63 -9 16 13 32 10 49 -11 13 -16 31
-25 40 -20 21 13 69 -48 70 -87 0 -22 24 -33 86 -37 73 -5 86 0 80 29 -4 19
-15 31 -26 25 -11 -5 -18 -16 -16 -23 3 -7 -18 -2 -45 10 -41 20 -44 26 -19
45 45 33 38 51 -50 126 -74 62 -77 70 -45 94 32 25 31 27 -15 30 -27 2 -61 5
-74 6 -50 5 -48 32 7 80 31 28 46 51 32 51 -13 1 -62 -39 -108 -88z m49 -150
c-8 -33 -17 -35 -58 -16 -65 29 -60 55 10 55 48 0 56 -7 48 -39z"/>
<path d="M2910 6513 c-162 -31 -236 -97 -262 -232 -13 -68 191 -123 316 -85
36 11 90 26 119 32 46 10 54 23 60 101 8 99 -7 110 -149 111 -42 0 -71 8 -65
19 17 27 130 20 218 -15 52 -20 68 -35 51 -45 -19 -12 -11 -23 28 -41 69 -31
68 -47 -5 -78 -53 -21 -56 -28 -30 -54 30 -30 23 -66 -14 -66 -21 0 -77 -49
-77 -69 0 -6 22 -11 49 -11 64 0 83 -32 27 -47 -24 -6 -39 -17 -32 -24 23 -22
91 11 101 49 6 20 35 41 70 48 33 7 86 34 117 61 52 44 59 46 82 16 21 -28 25
-21 25 47 0 59 -5 72 -19 50 -15 -23 -19 -18 -20 25 0 59 -47 77 -67 25 -7
-18 -26 -25 -47 -18 -20 7 -49 16 -64 20 -23 7 -22 14 5 34 61 45 20 103 -93
132 -153 39 -192 41 -324 15z m-60 -107 c-33 -18 -72 -49 -86 -69 -36 -51 -71
-48 -44 3 23 43 113 98 160 98 17 0 3 -14 -30 -32z m85 -117 c40 -29 15 -69
-42 -69 -100 0 -127 48 -62 112 54 54 59 55 66 18 4 -21 21 -49 38 -61z m465
-37 c0 -31 -42 -52 -103 -52 -48 0 -30 36 30 60 61 25 73 24 73 -8z"/>
<path d="M4660 6400 c-38 -32 -86 -59 -105 -59 -22 -1 -36 -17 -36 -46 -2 -41
-3 -42 -17 -6 -14 35 -16 35 -28 3 -8 -19 -22 -29 -32 -23 -11 6 -24 3 -31 -7
-6 -10 3 -23 19 -29 17 -7 30 -4 30 6 0 10 16 18 35 17 118 -4 233 68 221 139
-4 21 5 33 20 30 15 -4 21 3 14 15 -16 25 -8 29 -90 -40z"/>
<path d="M2587 6114 c2 -37 14 -49 50 -49 26 0 53 -9 60 -20 7 -11 34 -26 59
-34 30 -9 43 -25 36 -43 -9 -23 -3 -25 28 -8 73 39 -15 116 -143 126 -21 1
-35 16 -32 33 3 16 -10 33 -28 36 -24 5 -32 -6 -30 -41z"/>
<path d="M4056 5989 c24 -17 44 -39 44 -49 0 -10 26 -57 57 -104 109 -163 105
-239 -13 -278 -41 -13 -79 -32 -85 -41 -14 -22 -139 1 -139 26 0 9 26 17 59
17 77 0 97 35 31 52 -87 22 -172 -74 -142 -158 43 -121 64 -145 100 -116 26
22 38 22 62 2 24 -20 36 -20 60 0 25 21 38 19 68 -8 33 -30 38 -31 49 -2 8 21
-4 37 -37 50 -48 18 -75 106 -30 95 11 -3 50 31 88 75 79 92 116 85 256 -55
73 -72 76 -73 98 -32 16 30 16 38 0 28 -12 -7 -22 0 -22 18 0 17 -14 31 -32
31 -17 0 -36 18 -42 40 -6 22 -27 40 -46 40 -33 0 -70 50 -63 85 2 8 -6 15
-17 15 -11 0 -20 10 -20 21 0 12 -13 35 -30 52 -16 16 -30 46 -30 66 0 45 -51
89 -81 70 -16 -10 -20 1 -11 33 6 27 6 37 0 23 -16 -35 -88 -31 -88 5 0 18
-18 30 -44 30 l-45 0 45 -31z"/>
<path d="M3448 5885 c9 -15 2 -25 -17 -25 -17 0 -31 -14 -31 -32 0 -19 -11
-28 -27 -22 -49 19 -81 -21 -79 -100 1 -42 -8 -82 -20 -90 -25 -15 0 -70 75
-164 39 -48 63 -58 139 -60 99 -2 136 -64 52 -86 -22 -6 -40 -27 -40 -48 0
-22 -10 -33 -26 -27 -34 13 -229 -87 -301 -155 -57 -55 -59 -79 -14 -186 10
-22 22 -56 29 -75 16 -52 52 -42 52 14 0 59 32 83 69 52 19 -16 31 -16 40 -2
8 13 45 16 92 8 65 -10 79 -6 79 21 0 44 80 72 207 72 58 0 157 14 221 30 199
52 324 43 299 -20 -10 -26 -2 -26 60 0 91 38 161 38 193 0 14 -16 35 -29 47
-28 15 1 14 5 -2 11 -50 21 -23 44 45 38 50 -4 70 3 70 23 0 16 9 23 20 16 11
-7 20 7 20 31 0 30 -9 40 -30 32 -33 -13 -42 17 -10 37 11 7 3 30 -20 55 -22
23 -40 49 -40 58 0 8 -38 26 -85 40 -47 13 -99 36 -117 50 -47 40 -76 33 -102
-24 -27 -59 2 -93 74 -85 54 5 130 -46 130 -87 0 -44 -90 -64 -273 -61 -79 2
-190 -9 -246 -24 -56 -14 -179 -27 -272 -27 -124 -1 -185 -11 -221 -35 -66
-43 -168 -24 -168 32 0 22 16 45 35 53 19 7 55 35 80 62 25 27 45 42 45 33 0
-8 12 -5 27 8 16 12 43 17 61 10 49 -19 191 82 195 137 1 25 4 66 7 92 7 71
-49 79 -104 14 -45 -52 -50 -53 -84 -23 -19 17 -60 32 -90 32 -146 0 -165 75
-70 274 49 103 57 135 37 153 -19 18 -21 17 -11 -2z m1122 -745 c-7 -11 4 -20
23 -20 30 0 29 -5 -9 -32 -47 -33 -116 -24 -94 12 7 11 23 15 35 7 14 -9 17
-2 9 20 -8 22 -2 33 18 33 17 0 25 -9 18 -20z"/>
<path d="M2915 5845 c-78 -48 -56 -88 35 -65 11 3 40 5 65 3 25 -1 45 7 45 18
0 12 -11 15 -25 7 -17 -9 -19 -7 -5 7 11 12 38 26 60 32 23 7 17 9 -15 5 -31
-4 -61 1 -67 11 -15 24 -30 21 -93 -18z"/>
<path d="M6213 5816 c-12 -47 77 -51 95 -4 18 46 16 48 -37 44 -27 -3 -53 -20
-58 -40z"/>
<path d="M3577 5567 c-80 -22 -57 -67 34 -67 94 0 115 25 50 59 -21 12 -41 20
-45 19 -3 -2 -21 -7 -39 -11z"/>
<path d="M5494 5324 l-211 -5 -23 -115 c-12 -63 -34 -157 -49 -209 l-27 -95
103 0 c57 0 230 6 385 13 l281 13 -1 206 0 206 -124 -4 c-67 -2 -218 -7 -334
-10z m326 -206 c0 -102 -7 -156 -20 -148 -11 7 -20 84 -20 172 0 102 7 156 20
148 11 -7 20 -84 20 -172z"/>
<path d="M3835 5284 c-60 -7 -73 -38 -24 -57 35 -14 129 23 129 49 0 18 -14
19 -105 8z"/>
<path d="M1878 5193 c-4 -5 -224 -14 -488 -21 -264 -8 -543 -18 -620 -22 -77
-5 -281 -15 -454 -22 -277 -11 -313 -16 -311 -46 2 -25 18 -32 64 -27 34 4 84
9 112 13 29 3 63 12 76 20 14 9 22 5 18 -9 -3 -13 11 -26 30 -30 19 -3 35 1
35 8 0 15 206 28 315 18 14 -1 25 -15 25 -31 0 -24 8 -23 51 5 27 18 60 26 73
19 13 -9 17 -5 8 9 -23 36 11 27 41 -12 26 -33 27 -33 15 0 -14 41 12 46 51
10 21 -20 28 -20 35 0 5 14 18 25 29 25 11 0 13 -11 4 -25 -11 -19 -8 -20 14
-2 38 30 499 28 499 -2 0 -11 9 -7 20 9 17 27 19 27 20 0 1 -26 3 -26 19 -1
13 21 63 30 175 33 207 5 210 5 197 26 -10 17 85 11 144 -8 14 -5 25 0 25 12
0 11 34 17 80 12 44 -4 80 -1 80 8 0 8 16 19 35 24 19 5 -65 10 -187 12 -122
1 -225 -1 -230 -5z"/>
<path d="M0 4934 c0 -29 181 -55 577 -85 92 -7 200 -15 240 -19 40 -4 141 -12
223 -19 83 -7 241 -21 352 -32 112 -11 265 -24 340 -30 76 -5 242 -19 368 -30
425 -36 597 -42 530 -17 -33 11 -141 29 -240 39 -99 10 -211 22 -250 27 -38 5
-160 15 -270 22 -110 8 -227 17 -260 20 -33 4 -105 12 -160 19 -55 6 -172 16
-260 22 -88 6 -184 14 -214 18 -29 4 -133 13 -230 20 -219 17 -548 47 -661 62
-65 9 -85 5 -85 -17z"/>
<path d="M4611 4864 c-21 -20 -11 -44 17 -44 16 0 33 -11 39 -25 12 -30 56 23
46 55 -7 21 -85 32 -102 14z"/>
<path d="M3873 4757 c-112 -16 -122 -23 -106 -68 9 -21 26 -28 53 -19 33 10
40 4 40 -38 0 -41 -12 -52 -69 -63 -77 -15 -127 -57 -92 -78 12 -8 21 -6 21 3
0 9 74 15 165 14 91 -1 174 5 185 12 35 25 194 57 222 46 37 -14 61 53 27 75
-15 9 -37 10 -48 1 -31 -22 -227 -25 -240 -3 -7 11 -25 14 -42 8 -18 -7 -29 1
-29 19 0 17 20 34 43 38 24 3 47 16 51 29 11 31 -66 41 -181 24z"/>
<path d="M5550 4710 c-411 -28 -384 -24 -359 -49 35 -34 772 0 765 35 -8 41 1
41 -406 14z"/>
<path d="M5125 4605 c-77 -271 -98 -413 -70 -469 62 -125 86 -59 100 279 11
278 5 314 -30 190z"/>
<path d="M3455 4514 c-61 -24 -70 -44 -26 -61 17 -6 38 3 48 21 11 19 31 27
51 20 20 -8 32 -2 32 17 0 33 -27 34 -105 3z"/>
<path d="M533 4247 c-25 -26 -13 -47 27 -47 22 0 40 13 40 30 0 30 -42 41 -67
17z"/>
<path d="M683 4234 c-12 -15 -16 -35 -8 -44 8 -8 -43 -10 -115 -4 -71 6 -116
4 -100 -5 52 -28 172 -40 730 -71 375 -21 671 -27 600 -11 -44 10 -141 20
-216 22 -74 3 -140 13 -146 22 -6 10 -20 12 -31 5 -11 -6 -33 5 -48 25 -24 31
-27 31 -17 3 12 -35 -98 -36 -232 -4 -27 7 -113 17 -190 22 -81 6 -154 22
-172 38 -27 25 -36 25 -55 2z"/>
<path d="M8 4217 c-6 -9 3 -22 19 -29 43 -16 124 -2 118 22 -6 24 -122 31
-137 7z"/>
<path d="M5900 4031 c0 -211 25 -292 47 -156 25 153 15 365 -17 365 -25 0 -30
-37 -30 -209z"/>
<path d="M6240 4191 c0 -21 19 -31 62 -31 76 0 69 47 -9 56 -37 5 -53 -2 -53
-25z"/>
<path d="M6413 4207 c-27 -28 -12 -47 37 -47 31 0 50 11 50 30 0 30 -62 42
-87 17z"/>
<path d="M386 4097 c-13 -15 -29 -52 -37 -82 -7 -30 -21 -55 -31 -55 -10 0
-17 -20 -16 -45 2 -34 5 -36 12 -10 8 33 89 52 84 20 -13 -79 5 -143 36 -131
20 8 24 17 11 21 -16 5 -17 23 -4 58 43 113 -1 290 -55 224z"/>
<path d="M6080 4074 c0 -35 131 -102 170 -87 51 20 11 93 -51 93 -31 0 -70 5
-87 12 -21 8 -32 1 -32 -18z"/>
<path d="M6343 4002 c-20 -12 -12 -20 27 -30 60 -15 81 -6 61 27 -16 25 -51
27 -88 3z"/>
<path d="M6280 3856 c0 -9 27 -16 60 -16 33 0 60 9 60 20 0 11 -27 19 -60 16
-33 -2 -60 -12 -60 -20z"/>
<path d="M4165 3779 c-72 -28 -46 -97 49 -127 39 -12 42 -8 33 52 -13 84 -26
96 -82 75z"/>
<path d="M840 3747 c-331 -19 -363 -26 -356 -84 7 -62 75 -82 115 -34 17 20
60 31 122 31 53 0 102 9 109 20 24 39 105 22 120 -25 15 -43 16 -43 24 10 6
40 20 55 52 55 24 0 58 9 74 20 31 20 -3 21 -260 7z"/>
<path d="M5 3160 l3 -570 11 540 c6 297 5 554 -3 570 -8 17 -13 -226 -11 -540z"/>
<path d="M5029 3517 c-15 -47 -38 -80 -92 -131 -19 -18 -28 -46 -22 -62 7 -19
4 -25 -10 -17 -12 8 -28 5 -35 -7 -7 -11 -4 -20 7 -20 11 0 6 -42 -11 -95 -47
-147 -64 -283 -33 -271 14 5 31 28 39 51 7 23 36 63 64 89 42 39 51 64 48 132
-4 89 19 133 89 170 25 14 40 38 36 59 -24 121 -32 145 -48 145 -10 0 -25 -20
-32 -43z"/>
<path d="M2381 3492 c-35 -65 -1 -112 81 -112 36 0 67 -15 83 -40 13 -22 38
-40 54 -40 20 0 14 11 -16 32 -31 22 -39 39 -25 55 21 26 -69 129 -92 106 -6
-7 -22 2 -35 19 -20 27 -26 24 -50 -20z"/>
<path d="M2695 3331 c7 -38 -1 -50 -38 -57 l-47 -9 47 -15 c32 -11 43 -27 36
-53 -5 -20 -2 -32 7 -27 21 13 22 186 1 199 -8 5 -11 -12 -6 -38z"/>
<path d="M2940 3313 c0 -34 69 -97 87 -80 7 8 13 0 13 -17 0 -17 38 -64 85
-105 120 -103 131 -111 154 -111 31 0 26 34 -7 46 -17 7 -23 30 -17 62 11 58
8 60 -62 33 -38 -14 -52 -12 -61 10 -6 16 -1 29 10 29 12 0 -9 30 -45 67 -37
36 -73 63 -81 59 -7 -4 -19 2 -26 14 -18 29 -50 25 -50 -7z"/>
<path d="M840 3266 c0 -9 23 -27 51 -40 45 -20 51 -19 45 10 -6 34 -96 62 -96
30z"/>
<path d="M6435 3268 c-7 -7 0 -26 17 -42 21 -22 23 -37 8 -56 -15 -18 -13 -28
9 -37 23 -9 28 2 23 49 -8 65 -36 107 -57 86z"/>
<path d="M450 3179 c-118 -57 -194 -155 -248 -322 -26 -81 -69 -198 -95 -260
-51 -122 -58 -168 -27 -187 13 -8 13 -26 -2 -53 -23 -44 23 -117 75 -117 32 0
36 32 7 50 -11 7 -20 28 -20 46 1 29 3 29 19 5 28 -45 48 -11 22 37 -18 34
-17 42 7 42 16 0 32 -10 36 -23 5 -13 25 -17 52 -8 58 18 57 48 -1 38 -67 -12
-99 19 -89 85 8 54 9 55 23 14 25 -73 111 -83 111 -13 0 17 -19 36 -42 42 -32
8 -35 15 -15 29 21 15 22 21 2 29 -14 6 -25 19 -25 30 0 11 8 15 17 9 10 -6
23 27 29 74 7 47 18 100 25 118 8 22 0 35 -25 40 -28 6 -17 21 52 72 109 80
208 84 339 16 51 -27 143 -67 203 -89 61 -22 151 -63 200 -91 50 -28 121 -65
160 -82 38 -18 90 -51 115 -74 25 -24 51 -37 58 -30 7 8 27 2 44 -11 21 -18
26 -18 17 -1 -29 46 19 43 55 -5 20 -26 44 -43 54 -37 10 6 -4 29 -32 51 -28
22 -51 57 -51 78 0 23 -14 39 -32 39 -20 0 -28 11 -21 30 7 18 0 30 -16 30
-16 0 -34 18 -41 40 -7 22 -26 40 -41 40 -16 0 -29 8 -29 19 0 26 -278 196
-350 212 -33 8 -125 40 -206 72 -170 67 -207 69 -314 16z"/>
<path d="M3380 3054 c0 -25 -10 -56 -22 -68 -15 -15 -7 -18 27 -12 40 8 46 19
39 68 -10 69 -44 78 -44 12z"/>
<path d="M7172 3038 c7 -13 25 -69 38 -125 23 -91 26 -95 28 -37 2 61 -45 184
-70 184 -6 0 -4 -10 4 -22z"/>
<path d="M2320 3000 c0 -11 -14 -20 -31 -20 -17 0 -26 -9 -19 -20 23 -38 88
-22 85 20 -3 40 -35 58 -35 20z"/>
<path d="M4580 2974 c0 -10 13 -13 29 -7 48 18 14 -39 -40 -68 -51 -27 -65
-87 -27 -110 29 -18 61 31 50 75 -5 21 7 39 30 47 21 6 38 20 38 30 0 11 7 18
15 17 71 -12 133 5 87 24 -57 23 -182 17 -182 -8z"/>
<path d="M5761 2925 c2 -41 -2 -91 -10 -110 -19 -44 2 -102 30 -84 12 7 31
-14 44 -49 13 -34 31 -62 39 -62 18 0 10 72 -10 93 -8 7 -14 48 -14 89 0 42
-9 81 -20 88 -11 7 -20 34 -20 61 0 27 -10 49 -22 49 -12 0 -19 -32 -17 -75z"/>
<path d="M2049 2902 c18 -30 -10 -80 -39 -69 -40 15 -56 -30 -23 -63 19 -19
35 -23 43 -10 7 11 20 16 29 10 9 -5 22 3 28 19 6 17 3 35 -6 40 -9 6 -13 29
-7 51 6 23 1 40 -13 40 -13 0 -18 -8 -12 -18z"/>
<path d="M2733 2895 c-29 -22 -20 -24 59 -18 63 5 84 13 66 25 -39 25 -85 22
-125 -7z"/>
<path d="M503 2860 c-16 -42 -21 -45 -33 -16 -7 18 -26 29 -42 23 -47 -18 -32
-79 27 -106 30 -14 70 -33 88 -42 22 -11 42 -7 58 12 20 24 16 29 -22 29 -43
0 -44 2 -11 26 33 24 33 28 -5 75 l-40 49 -20 -50z"/>
<path d="M2115 2794 c-17 -41 14 -114 48 -114 15 0 16 8 1 25 -11 14 -23 48
-27 75 -6 43 -9 45 -22 14z"/>
<path d="M5975 2795 c-20 -54 5 -73 66 -52 66 23 82 68 19 51 -22 -6 -40 -2
-40 8 0 27 -34 22 -45 -7z"/>
<path d="M749 2772 c-42 -31 -11 -59 96 -88 66 -18 75 -17 75 15 0 67 -113
115 -171 73z"/>
<path d="M4071 2761 c-11 -17 46 -61 78 -61 25 0 9 57 -21 68 -41 16 -44 15
-57 -7z"/>
<path d="M380 2720 c0 -11 -18 -20 -40 -20 -28 0 -40 -13 -40 -45 1 -57 33
-109 54 -87 9 10 5 21 -9 26 -17 6 -8 31 28 78 28 37 42 68 29 68 -12 0 -22
-9 -22 -20z"/>
<path d="M948 2695 c7 -14 18 -41 25 -61 7 -20 24 -32 38 -26 26 10 55 -33 59
-88 1 -16 14 -27 28 -24 14 3 39 -5 54 -18 23 -18 28 -14 28 23 0 55 -173 219
-231 219 -7 0 -7 -11 -1 -25z"/>
<path d="M455 2646 c-31 -8 -31 -13 -6 -38 16 -16 24 -42 18 -59 -8 -20 -2
-26 17 -19 32 13 44 90 14 90 -11 0 -15 9 -8 20 7 11 10 19 6 18 -3 -2 -22 -7
-41 -12z"/>
<path d="M2181 2624 c21 -9 31 -40 30 -91 -1 -42 6 -81 14 -86 8 -5 15 36 15
92 0 92 -4 101 -45 100 -33 -1 -37 -5 -14 -15z"/>
<path d="M6019 2611 c13 -15 21 -40 19 -55 -7 -40 24 -136 44 -136 10 0 18 23
18 50 0 28 -8 50 -18 50 -10 0 -17 11 -17 25 3 68 -8 95 -37 95 -26 0 -28 -6
-9 -29z"/>
<path d="M5780 2540 c0 -11 -19 -20 -42 -20 -26 0 -37 -9 -30 -25 7 -14 18
-41 24 -60 18 -51 95 -47 78 4 -7 22 -2 58 10 80 17 33 15 41 -9 41 -17 0 -31
-9 -31 -20z"/>
<path d="M383 2502 c-40 -25 -10 -96 44 -106 42 -8 44 -5 24 58 -22 71 -27 74
-68 48z"/>
<path d="M1429 2469 c8 -69 85 -144 96 -94 12 57 -7 103 -37 91 -17 -6 -28 3
-28 22 0 18 -8 32 -18 32 -10 0 -16 -23 -13 -51z"/>
<path d="M764 2468 c-22 -24 -20 -31 6 -41 44 -17 80 20 46 48 -19 15 -33 13
-52 -7z"/>
<path d="M6132 2429 c-10 -26 1 -29 59 -20 54 8 68 5 57 -14 -11 -20 -8 -20
13 0 33 31 24 40 -55 54 -45 8 -65 2 -74 -20z"/>
<path d="M7839 2382 c13 -24 29 -39 37 -34 8 4 14 -17 14 -48 0 -31 -9 -55
-19 -53 -10 2 -20 -57 -22 -131 -1 -74 5 -130 14 -124 10 6 17 -4 17 -22 0
-19 11 -30 25 -25 14 5 25 26 25 47 0 21 7 43 16 50 8 6 20 33 25 60 5 26 12
66 16 88 8 42 -100 211 -145 226 -20 7 -21 0 -3 -34z"/>
<path d="M589 2360 c0 -26 13 -40 37 -40 27 0 35 10 26 32 -7 17 -12 35 -12
40 0 4 -12 8 -26 8 -14 0 -25 -18 -25 -40z"/>
<path d="M6267 2341 c-27 -63 6 -106 59 -78 19 11 30 28 23 38 -6 11 -19 15
-29 9 -9 -6 -21 10 -25 35 l-8 45 -20 -49z"/>
<path d="M6788 2168 c2 -116 -3 -215 -12 -221 -9 -5 -10 -20 -2 -33 21 -34 29
-75 27 -138 -2 -58 29 -95 33 -39 5 60 16 92 41 119 14 15 21 35 15 44 -6 9
-3 20 6 23 9 4 13 45 8 92 -4 47 -16 80 -26 74 -32 -20 -44 50 -15 86 24 31
23 32 -5 10 -17 -13 -37 -20 -43 -14 -15 16 6 89 27 89 21 0 -1 61 -34 94 -18
19 -23 -22 -20 -186z"/>
<path d="M1300 2321 c0 -10 20 -33 44 -50 25 -17 38 -31 29 -31 -9 0 18 -34
60 -75 42 -40 77 -79 77 -84 0 -6 11 -12 25 -14 14 -2 25 5 25 15 0 10 -9 18
-20 18 -11 0 -20 19 -20 41 0 23 -7 37 -15 33 -26 -15 -91 60 -65 76 34 21
-37 90 -93 90 -26 0 -47 -8 -47 -19z"/>
<path d="M2393 2327 c-7 -8 -13 -37 -12 -65 l1 -52 30 56 c17 31 39 49 52 42
13 -9 17 -5 8 9 -16 25 -58 31 -79 10z"/>
<path d="M5860 2310 c0 -16 8 -30 18 -30 30 0 42 -86 16 -117 -16 -21 -7 -19
31 6 49 31 79 115 40 109 -41 -7 -65 5 -65 32 0 17 -9 30 -20 30 -11 0 -20
-13 -20 -30z"/>
<path d="M1140 2284 c0 -13 -12 -18 -27 -12 -17 6 -32 -7 -40 -35 -15 -57 -11
-60 77 -64 82 -4 103 11 62 46 -20 16 -32 16 -42 2 -7 -12 -22 -16 -32 -10
-13 8 -11 23 4 41 13 16 18 35 11 42 -7 7 -13 2 -13 -10z"/>
<path d="M6009 2219 c-6 -11 2 -24 18 -31 17 -6 26 -24 20 -39 -6 -15 8 -52
31 -81 23 -29 42 -62 42 -73 0 -38 68 -74 95 -51 32 27 32 79 0 75 -49 -7 -75
1 -75 22 0 12 17 16 38 10 64 -21 64 20 1 67 -33 24 -55 52 -50 61 6 9 -16 26
-49 38 -37 13 -64 13 -71 2z"/>
<path d="M2640 2197 c0 -38 5 -47 23 -42 10 3 23 -8 30 -25 18 -47 43 -35 40
19 -3 45 -93 93 -93 48z"/>
<path d="M0 2112 c0 -44 94 -112 156 -112 12 0 24 -8 27 -18 4 -10 49 -11 102
-3 78 12 91 10 72 -12 -16 -20 -16 -27 2 -27 13 0 18 -8 12 -18 -6 -10 6 -14
26 -9 23 6 42 -2 50 -21 7 -21 35 -32 77 -31 125 2 282 -18 294 -38 24 -38
160 -51 174 -15 16 42 49 20 35 -24 -8 -26 -6 -28 9 -6 23 32 64 13 64 -29 0
-40 38 -36 115 11 55 33 65 35 65 9 0 -17 -9 -26 -20 -19 -30 19 -24 -5 13
-49 24 -27 44 -34 67 -21 52 28 160 18 160 -14 0 -16 -8 -23 -18 -17 -10 6
-22 1 -26 -12 -6 -17 -19 -17 -52 1 -48 25 -84 15 -84 -24 0 -14 8 -12 20 6
19 30 24 22 28 -47 1 -25 34 -49 102 -74 120 -45 200 -89 277 -152 31 -26 65
-42 75 -36 10 6 18 -3 18 -20 0 -38 48 -61 82 -40 16 10 8 24 -24 43 -27 16
-33 24 -15 19 23 -7 31 0 28 23 -3 23 -20 32 -51 27 -39 -6 -44 0 -33 43 13
52 -29 88 -72 61 -12 -8 -15 -4 -7 10 9 14 -6 31 -39 43 -38 15 -49 30 -41 53
8 20 -3 48 -27 71 -23 21 -41 28 -41 17 0 -12 -10 -21 -22 -21 -13 0 -19 21
-13 49 12 64 -103 187 -147 159 -13 -7 -28 -4 -35 6 -13 20 -193 92 -313 126
-114 33 -320 83 -370 91 -27 4 -148 26 -269 48 -310 58 -431 56 -431 -7z"/>
<path d="M3032 2137 c6 -9 37 -17 69 -17 33 0 59 -10 59 -21 0 -12 10 -15 22
-8 12 8 30 2 40 -13 13 -21 17 -16 18 18 0 37 -8 44 -38 35 -21 -7 -44 -4 -51
7 -6 11 -38 19 -71 18 -32 -1 -54 -10 -48 -19z"/>
<path d="M1460 1981 c0 -50 8 -61 45 -60 39 0 41 3 11 20 -19 11 -30 32 -24
48 6 15 1 33 -11 40 -13 8 -21 -10 -21 -48z"/>
<path d="M7281 1966 c0 -35 8 -69 19 -76 11 -7 20 -30 20 -51 0 -22 9 -39 20
-39 24 0 26 -11 -19 120 -34 98 -38 103 -40 46z"/>
<path d="M2934 1955 c-11 -32 23 -99 44 -86 20 12 4 111 -19 111 -8 0 -20 -11
-25 -25z"/>
<path d="M7935 1905 c-33 -36 -68 -145 -48 -145 16 0 98 162 88 172 -5 5 -23
-8 -40 -27z"/>
<path d="M120 1894 c0 -31 59 -114 59 -84 0 11 -5 40 -12 65 -13 48 -47 62
-47 19z"/>
<path d="M6360 1901 c0 -10 9 -24 20 -31 27 -16 26 -70 -1 -70 -12 0 -16 8
-10 18 6 9 -3 29 -20 43 -25 21 -28 19 -17 -13 12 -33 8 -32 -30 7 -51 52
-121 61 -114 13 3 -17 14 -37 26 -45 11 -7 28 -43 36 -81 10 -49 19 -60 32
-40 10 16 18 18 18 6 0 -33 67 -26 96 10 20 24 29 26 37 7 17 -41 44 -28 33
15 -7 28 -1 40 22 40 17 0 33 -9 35 -20 1 -11 3 -28 5 -38 5 -39 31 -45 72
-17 41 30 9 70 -46 58 -10 -2 -12 4 -7 13 12 19 -41 70 -93 90 -19 7 -34 22
-34 33 0 12 -13 21 -30 21 -16 0 -30 -8 -30 -19z"/>
<path d="M1860 1770 c0 -25 -7 -26 -40 -6 -31 20 -44 20 -65 -1 -20 -21 -18
-23 13 -11 31 12 36 8 26 -20 -8 -19 -5 -29 5 -23 10 6 24 -7 31 -29 15 -47
27 -49 75 -12 49 37 47 80 -2 54 -32 -18 -36 -14 -28 29 5 27 4 49 -3 49 -6 0
-12 -14 -12 -30z"/>
<path d="M2020 1750 c0 -16 -8 -30 -18 -30 -10 0 -14 -18 -8 -40 6 -22 17 -36
25 -31 7 5 10 -18 5 -50 -5 -33 -17 -64 -26 -70 -23 -15 -23 -69 0 -69 9 0 22
18 28 40 6 22 20 40 32 40 33 0 26 -74 -8 -87 -25 -10 -26 -21 -6 -67 55 -125
116 -205 147 -193 23 9 25 19 10 34 -11 11 -21 36 -21 55 0 19 -9 38 -21 42
-11 3 -23 42 -27 86 -4 44 -12 94 -18 110 -36 103 -54 172 -54 213 0 26 -9 47
-20 47 -11 0 -20 -13 -20 -30z"/>
<path d="M8552 1735 c20 -65 71 -98 106 -68 23 19 18 25 -30 35 -49 10 -53 14
-21 28 29 12 31 19 10 32 -51 33 -81 21 -65 -27z"/>
<path d="M22 1635 c-27 -71 38 -99 108 -47 33 23 34 33 12 60 -39 46 -100 40
-120 -13z"/>
<path d="M6908 1651 c-7 -16 -25 -23 -42 -17 -21 8 -28 3 -23 -14 5 -15 42
-29 81 -31 39 -2 82 -11 96 -19 16 -10 22 -6 16 12 -5 15 -31 32 -57 39 -27 7
-47 23 -44 36 7 33 -14 29 -27 -6z"/>
<path d="M1916 1598 c5 -32 20 -58 33 -58 32 0 17 94 -17 107 -17 6 -22 -9
-16 -49z"/>
<path d="M5270 1628 c47 -35 116 -37 105 -4 -4 14 -38 26 -76 28 -62 3 -65 2
-29 -24z"/>
<path d="M7280 1621 c0 -46 36 -73 62 -47 10 10 1 31 -22 52 -38 32 -40 32
-40 -5z"/>
<path d="M474 1606 c-23 -6 -33 -21 -26 -39 7 -17 3 -47 -9 -68 -24 -46 -2
-50 52 -10 58 44 74 37 38 -17 -17 -27 -24 -53 -15 -58 24 -14 154 -42 172
-37 10 2 12 -4 6 -13 -11 -18 53 -58 108 -68 17 -3 41 -24 54 -46 14 -22 25
-29 25 -15 1 14 19 25 41 25 22 0 40 11 40 25 1 17 7 15 20 -5 17 -26 23 -26
38 -1 16 25 24 25 53 0 19 -16 55 -26 81 -22 36 4 50 -6 60 -47 9 -35 24 -50
48 -46 41 7 120 -57 120 -98 0 -15 21 -35 47 -45 35 -13 46 -31 42 -74 -2 -31
0 -41 5 -22 5 19 22 35 37 35 34 0 39 -53 6 -64 -13 -5 -19 -20 -14 -35 7 -21
14 -21 38 3 18 18 45 24 69 16 36 -13 36 -15 3 -33 -41 -23 -24 -90 19 -74 17
7 28 -2 28 -22 0 -19 -9 -28 -22 -20 -13 9 -19 0 -15 -22 10 -49 57 -61 59
-16 1 26 6 22 16 -13 20 -72 102 -82 102 -11 0 28 -8 51 -18 51 -11 0 -25 26
-32 59 -7 32 -25 69 -41 82 -16 13 -24 31 -18 41 6 9 -8 35 -30 57 -23 23 -41
35 -41 29 0 -7 -13 -2 -30 12 -37 31 -17 67 31 54 31 -8 33 -4 14 26 -12 20
-32 32 -44 28 -12 -5 -24 7 -25 27 -5 73 -19 105 -62 142 -24 21 -44 48 -44
60 0 13 -22 23 -50 23 -31 0 -50 11 -50 30 0 18 -34 38 -90 52 -49 12 -85 30
-79 39 12 20 -129 63 -154 47 -9 -6 -17 -2 -17 8 0 32 -465 92 -546 70z"/>
<path d="M139 1515 c-128 -64 -129 -66 -135 -155 -3 -65 1 -82 15 -60 17 26
26 26 63 3 41 -25 43 -24 30 30 -12 55 -12 56 20 17 23 -28 35 -32 42 -15 5
14 27 25 48 25 41 0 72 57 82 152 9 77 -19 77 -165 3z"/>
<path d="M5951 1442 c-7 -12 -6 -22 3 -23 9 0 0 -9 -19 -21 -43 -25 -28 -58
26 -58 41 0 52 49 21 97 -12 19 -21 21 -31 5z"/>
<path d="M8271 1395 c8 -25 18 -49 23 -54 12 -15 46 45 44 79 -1 20 -4 22 -11
5 -6 -14 -19 -25 -30 -25 -11 0 -14 9 -7 20 7 11 2 20 -10 20 -14 0 -18 -17
-9 -45z"/>
<path d="M5100 1377 c0 -12 19 -26 41 -32 25 -6 37 -21 31 -38 -9 -22 -3 -23
27 -8 21 12 52 15 70 9 22 -9 31 0 31 29 0 47 -31 74 -50 43 -7 -11 -23 -14
-36 -7 -37 24 -114 26 -114 4z"/>
<path d="M213 1307 c-7 -8 -13 -26 -13 -42 0 -16 -18 -52 -40 -80 -55 -70 -51
-84 28 -81 69 2 57 56 -12 56 -19 1 -18 6 4 20 21 13 36 11 50 -7 49 -62 90
-55 90 18 0 38 -9 69 -20 69 -11 0 -20 15 -20 34 0 29 -4 29 -30 -5 -25 -33
-28 -33 -18 -4 13 36 5 45 -19 22z"/>
<path d="M3146 1245 c-33 -27 -37 -40 -19 -55 35 -28 73 -34 73 -10 0 11 -10
20 -21 20 -12 0 -8 14 10 31 58 59 27 68 -43 14z"/>
<path d="M411 1219 c6 -11 -5 -19 -25 -20 -34 0 -34 -2 -1 -27 19 -14 35 -41
35 -59 0 -44 35 -42 46 2 5 19 11 4 12 -35 4 -97 27 -127 90 -116 61 12 74
-34 15 -53 -40 -13 -57 -180 -21 -202 10 -7 13 -20 7 -30 -6 -11 -2 -19 9 -19
11 0 29 16 40 35 12 19 21 28 21 19 1 -18 35 14 80 76 17 24 19 31 3 17 -26
-23 -102 -14 -102 12 0 7 59 25 130 40 72 14 130 34 130 45 0 10 19 13 42 6
36 -12 40 -6 35 43 -6 47 -16 56 -55 52 -27 -3 -65 10 -86 29 -21 18 -57 37
-81 40 -24 4 -69 31 -99 60 -31 30 -56 46 -56 37 0 -9 -13 -5 -28 7 -37 31
-156 65 -141 41z"/>
<path d="M3290 1118 c-8 -33 -8 -66 -2 -73 7 -6 12 3 12 22 0 18 14 33 30 33
38 0 38 15 2 51 -25 25 -31 20 -42 -33z"/>
<path d="M1060 1086 c0 -16 11 -26 25 -21 14 5 35 -5 47 -21 12 -17 32 -24 45
-16 40 25 26 45 -47 67 -58 18 -70 16 -70 -9z"/>
<path d="M6402 1092 c-15 -18 -16 -42 -4 -74 14 -35 20 -39 21 -13 0 19 10 35
21 35 25 0 27 54 2 69 -9 6 -28 -2 -40 -17z"/>
<path d="M6654 1094 c-5 -14 12 -47 38 -72 53 -51 64 -34 18 26 -16 21 -24 46
-18 55 6 9 2 17 -9 17 -10 0 -23 -12 -29 -26z"/>
<path d="M5392 1085 c-9 -8 -26 -15 -39 -15 -12 0 -26 -22 -30 -49 -6 -42 -2
-45 24 -24 25 21 31 18 36 -20 7 -42 9 -42 41 -11 40 41 70 45 37 6 -16 -20
-16 -33 -2 -41 12 -8 21 -3 21 9 0 12 9 17 20 10 11 -7 20 -1 20 14 1 19 6 18
20 -4 11 -16 21 -23 22 -15 10 55 6 70 -29 110 -39 44 -112 60 -141 30z"/>
<path d="M313 1007 c-7 -8 -13 -39 -13 -69 0 -35 -18 -69 -50 -94 -49 -39 -65
-66 -35 -62 64 11 101 -7 110 -51 10 -55 -17 -93 -56 -78 -14 5 -31 -9 -39
-32 -7 -22 -30 -41 -50 -41 -60 0 -67 38 -11 60 32 12 49 32 45 54 -12 83 -74
120 -74 45 0 -23 9 -36 20 -29 11 7 20 -2 20 -19 0 -17 -9 -32 -20 -33 -11 -2
-28 -4 -38 -5 -42 -6 -43 -32 -4 -71 53 -53 72 -53 111 2 17 25 31 33 31 18 0
-21 20 -24 83 -14 150 24 173 53 127 160 -15 34 -19 35 -40 5 -44 -60 -97 3
-61 72 17 33 20 55 8 55 -12 0 -16 14 -9 32 13 34 -34 116 -55 95z"/>
<path d="M1361 996 c1 -60 79 -124 79 -65 0 17 -9 26 -20 19 -11 -7 -20 1 -20
18 0 16 -9 35 -20 42 -11 7 -20 1 -19 -14z"/>
<path d="M6492 1004 c-8 -14 -23 -19 -33 -13 -25 15 -24 -33 1 -71 17 -26 19
-25 20 3 0 19 10 37 23 41 13 5 19 21 14 36 -7 21 -13 22 -25 4z"/>
<path d="M8595 947 c-30 -16 -55 -42 -55 -57 0 -36 45 -64 55 -34 10 28 48 33
40 6 -3 -10 0 -17 7 -15 6 2 27 -10 45 -25 19 -15 40 -22 47 -15 7 7 3 13 -9
13 -28 0 -21 47 13 87 57 69 -38 95 -143 40z"/>
<path d="M5573 875 c-21 -76 -15 -91 34 -88 29 2 44 13 39 27 -6 14 -16 24
-23 23 -37 -5 -46 6 -24 31 13 17 15 33 4 40 -10 6 -24 -9 -30 -33z"/>
<path d="M6566 908 c7 -7 -3 -27 -21 -45 -30 -31 -29 -33 11 -39 24 -4 44 -15
44 -25 0 -11 11 -19 24 -19 19 0 19 5 0 24 -13 13 -24 45 -24 70 0 25 -10 46
-23 46 -13 0 -18 -6 -11 -12z"/>
<path d="M7252 838 c-7 -46 -5 -93 4 -102 11 -11 23 17 30 68 15 112 -16 144
-34 34z"/>
<path d="M8275 796 c-54 -67 -42 -93 15 -32 28 30 50 59 50 65 0 24 -32 8 -65
-33z"/>
<path d="M8653 746 c-20 -20 -15 -110 5 -97 24 15 41 89 23 100 -9 6 -21 4
-28 -3z"/>
<path d="M1115 708 c-8 -7 -53 -16 -100 -18 -47 -3 -148 -30 -225 -60 -189
-73 -310 -109 -370 -110 -42 -1 -44 -4 -17 -20 23 -14 121 0 320 44 158 35
339 67 402 71 101 8 170 45 82 45 -18 0 -43 14 -55 31 -13 17 -29 25 -37 17z"/>
<path d="M3108 546 c-20 -14 -25 -26 -12 -26 12 0 18 -13 12 -28 -6 -15 -1
-34 11 -41 12 -8 21 3 21 25 0 43 46 91 67 70 7 -7 13 -3 13 9 0 29 -67 24
-112 -9z"/>
<path d="M1010 537 c-44 -8 -156 -38 -250 -67 -93 -29 -199 -58 -234 -64 -43
-7 -60 -19 -52 -38 6 -17 -3 -28 -22 -28 -18 0 -32 -13 -32 -30 0 -16 -7 -30
-16 -30 -8 0 -44 -27 -80 -60 -36 -32 -108 -89 -160 -125 l-94 -65 122 -6
c116 -5 131 -1 288 95 291 177 638 267 1024 266 477 -2 294 142 -204 160 -115
4 -246 0 -290 -8z"/>
<path d="M3393 486 c-22 -21 -15 -110 7 -96 12 7 15 23 7 34 -7 13 -4 16 9 9
11 -8 26 -6 32 4 14 23 -37 68 -55 49z"/>
<path d="M75 387 l-75 -31 0 -153 c0 -143 2 -149 31 -107 17 24 43 44 57 44
14 0 37 23 52 50 15 28 39 50 53 50 14 0 41 22 59 50 18 28 44 50 58 50 29 0
54 49 35 68 -23 23 -196 10 -270 -21z"/>
<path d="M1500 325 c0 -11 65 -84 145 -162 l145 -142 155 -1 c155 0 182 13
125 60 -16 14 -30 35 -30 47 0 13 -23 49 -50 81 -28 32 -50 65 -50 72 0 8 -79
20 -175 26 -96 6 -195 18 -220 25 -26 8 -45 5 -45 -6z"/>
<path d="M1169 259 c-4 -8 -53 -20 -107 -27 -112 -15 -282 -84 -282 -114 0
-11 -8 -15 -19 -9 -10 6 -24 2 -32 -10 -7 -12 -37 -32 -66 -45 -49 -22 -42
-24 74 -30 73 -3 138 3 153 16 15 13 62 26 104 30 89 9 112 14 206 45 84 28
164 41 265 43 99 3 98 45 -1 90 -74 34 -276 41 -295 11z"/>
<path d="M1304 58 c7 -21 61 -29 218 -33 255 -6 229 25 -40 46 -155 12 -186
10 -178 -13z"/>
</g>
</svg>
